<mxfile host="app.diagrams.net" modified="2024-03-23T02:43:30.718Z" agent="Mozilla/5.0 (Macintosh; Intel Mac OS X 10.15; rv:123.0) Gecko/20100101 Firefox/123.0" etag="lGx7MEuMT0hgD48o29ER" version="24.0.7" type="device">
  <diagram id="C5RBs43oDa-KdzZeNtuy" name="Page-1">
    <mxGraphModel dx="3283" dy="3409" grid="1" gridSize="10" guides="1" tooltips="1" connect="1" arrows="1" fold="1" page="1" pageScale="1" pageWidth="827" pageHeight="1169" math="0" shadow="0">
      <root>
        <mxCell id="WIyWlLk6GJQsqaUBKTNV-0" />
        <mxCell id="Y2x5lNRcQAVwNxMI_Fzu-35" parent="WIyWlLk6GJQsqaUBKTNV-0" />
        <mxCell id="Y2x5lNRcQAVwNxMI_Fzu-36" value="Tạo mới kỳ thi" style="html=1;overflow=block;blockSpacing=1;whiteSpace=wrap;fontSize=16.7;fontFamily=Helvetica;fontColor=#3a414a;spacing=3.8;strokeColor=#3a414a;strokeOpacity=100;fillOpacity=100;rounded=1;absoluteArcSize=1;arcSize=7.5;fillColor=#cfe4ff;strokeWidth=0.8;lucidId=etI2NNhPbbnq;" parent="Y2x5lNRcQAVwNxMI_Fzu-35" vertex="1">
          <mxGeometry x="-1336" y="-2238" width="191" height="98" as="geometry" />
        </mxCell>
        <mxCell id="Y2x5lNRcQAVwNxMI_Fzu-38" value="" style="html=1;jettySize=18;whiteSpace=wrap;fontSize=13;fontFamily=Helvetica;strokeColor=#333333;strokeOpacity=100;strokeWidth=0.8;rounded=1;arcSize=10;edgeStyle=orthogonalEdgeStyle;startArrow=none;endArrow=block;endFill=1;exitX=0.5;exitY=1;entryX=1;entryY=0.5;lucidId=etI2iA-WQSgF;exitDx=0;exitDy=0;entryDx=0;entryDy=0;" parent="Y2x5lNRcQAVwNxMI_Fzu-35" source="Y2x5lNRcQAVwNxMI_Fzu-41" target="Y2x5lNRcQAVwNxMI_Fzu-71" edge="1">
          <mxGeometry width="100" height="100" relative="1" as="geometry">
            <Array as="points" />
          </mxGeometry>
        </mxCell>
        <mxCell id="Y2x5lNRcQAVwNxMI_Fzu-39" value="No" style="text;html=1;resizable=0;labelBackgroundColor=default;align=center;verticalAlign=middle;fontStyle=1;fontColor=#3a414a;fontSize=16.7;" parent="Y2x5lNRcQAVwNxMI_Fzu-38" vertex="1">
          <mxGeometry x="-0.12300231451809707" relative="1" as="geometry" />
        </mxCell>
        <mxCell id="Y2x5lNRcQAVwNxMI_Fzu-40" value="Cập nhật thuộc tính sinh phách tự động = True" style="html=1;overflow=block;blockSpacing=1;whiteSpace=wrap;fontSize=16.7;fontFamily=Helvetica;fontColor=#3a414a;spacing=3.8;strokeColor=#3a414a;strokeOpacity=100;fillOpacity=100;rounded=1;absoluteArcSize=1;arcSize=7.5;fillColor=#cfe4ff;strokeWidth=0.8;lucidId=etI238ScHZtL;" parent="Y2x5lNRcQAVwNxMI_Fzu-35" vertex="1">
          <mxGeometry x="-1336" y="-2040" width="191" height="98" as="geometry" />
        </mxCell>
        <mxCell id="Y2x5lNRcQAVwNxMI_Fzu-41" value="&lt;div&gt;Tự động sinh phách dựa trên&lt;/div&gt;&lt;div&gt;danh sách sinh viên nhập vào?&lt;/div&gt;" style="html=1;overflow=block;blockSpacing=1;whiteSpace=wrap;rhombus;fontSize=16.7;fontColor=#3a414a;spacingLeft=8.8;spacingRight=8.8;spacingTop=2.5;spacing=3.8;verticalAlign=middle;strokeColor=#1071e5;strokeOpacity=100;fillOpacity=100;rounded=1;absoluteArcSize=1;arcSize=7.5;fillColor=#ffffff;strokeWidth=2.3;lucidId=etI2R~uESKi-;" parent="Y2x5lNRcQAVwNxMI_Fzu-35" vertex="1">
          <mxGeometry x="-823" y="-2060" width="343" height="140" as="geometry" />
        </mxCell>
        <mxCell id="Y2x5lNRcQAVwNxMI_Fzu-69" value="Nhập số phách bắt đầu, số phách kết thúc" style="html=1;overflow=block;blockSpacing=1;whiteSpace=wrap;fontSize=16.7;fontColor=#3a414a;spacing=9;strokeColor=#3a414a;strokeOpacity=100;rounded=1;absoluteArcSize=1;arcSize=9;strokeWidth=0.8;lucidId=n~Z2MHJ9ehHi;" parent="Y2x5lNRcQAVwNxMI_Fzu-35" vertex="1">
          <mxGeometry x="-1019" y="-2234" width="148" height="90" as="geometry" />
        </mxCell>
        <mxCell id="Y2x5lNRcQAVwNxMI_Fzu-70" value="" style="html=1;jettySize=18;whiteSpace=wrap;fontSize=13;strokeColor=#3a414a;strokeOpacity=100;strokeWidth=0.8;rounded=1;arcSize=12;edgeStyle=orthogonalEdgeStyle;startArrow=none;endArrow=block;endFill=1;entryX=0;entryY=0.5;lucidId=Db02hZ-D.KcY;entryDx=0;entryDy=0;exitX=1;exitY=0.5;exitDx=0;exitDy=0;" parent="Y2x5lNRcQAVwNxMI_Fzu-35" source="Y2x5lNRcQAVwNxMI_Fzu-36" target="Y2x5lNRcQAVwNxMI_Fzu-69" edge="1">
          <mxGeometry width="100" height="100" relative="1" as="geometry">
            <Array as="points" />
            <mxPoint x="-1130" y="-2189" as="sourcePoint" />
            <mxPoint x="-1024" y="-2189" as="targetPoint" />
          </mxGeometry>
        </mxCell>
        <mxCell id="Y2x5lNRcQAVwNxMI_Fzu-71" value="Cập nhật thuộc tính sinh phách tự động = False" style="html=1;overflow=block;blockSpacing=1;whiteSpace=wrap;fontSize=16.7;fontFamily=Helvetica;fontColor=#3a414a;spacing=3.8;strokeColor=#3a414a;strokeOpacity=100;fillOpacity=100;rounded=1;absoluteArcSize=1;arcSize=7.5;fillColor=#cfe4ff;strokeWidth=0.8;lucidId=9C02dhXhYO4_;" parent="Y2x5lNRcQAVwNxMI_Fzu-35" vertex="1">
          <mxGeometry x="-1358" y="-1870" width="236" height="105" as="geometry" />
        </mxCell>
        <mxCell id="Y2x5lNRcQAVwNxMI_Fzu-77" value="Start" style="html=1;overflow=block;blockSpacing=1;whiteSpace=wrap;fontSize=16.7;fontColor=#3a414a;spacing=3.8;strokeColor=#3a414a;strokeOpacity=100;rounded=1;absoluteArcSize=1;arcSize=9;strokeWidth=0.8;lucidId=5F02H6.4qjMD;" parent="Y2x5lNRcQAVwNxMI_Fzu-35" vertex="1">
          <mxGeometry x="-1600" y="-2216" width="120" height="60" as="geometry" />
        </mxCell>
        <mxCell id="Y2x5lNRcQAVwNxMI_Fzu-79" value="Sinh phách cho kỳ thi" style="html=1;overflow=block;blockSpacing=1;whiteSpace=wrap;fontSize=16.7;fontFamily=Helvetica;fontColor=#3a414a;spacing=3.8;strokeColor=#3a414a;strokeOpacity=100;fillOpacity=100;rounded=1;absoluteArcSize=1;arcSize=7.5;fillColor=#cfe4ff;strokeWidth=0.8;lucidId=l442yFQ2.ugf;" parent="Y2x5lNRcQAVwNxMI_Fzu-35" vertex="1">
          <mxGeometry x="678" y="-1385" width="191" height="98" as="geometry" />
        </mxCell>
        <mxCell id="Y2x5lNRcQAVwNxMI_Fzu-80" value="" style="html=1;jettySize=18;whiteSpace=wrap;fontSize=13;fontFamily=Helvetica;strokeColor=#333333;strokeOpacity=100;strokeWidth=0.8;rounded=1;arcSize=10;edgeStyle=orthogonalEdgeStyle;startArrow=none;endArrow=block;endFill=1;exitX=0.5;exitY=1.004;exitPerimeter=0;entryX=0.501;entryY=0.001;entryPerimeter=0;lucidId=l442.mK3H9wb;" parent="Y2x5lNRcQAVwNxMI_Fzu-35" source="Y2x5lNRcQAVwNxMI_Fzu-79" target="Y2x5lNRcQAVwNxMI_Fzu-83" edge="1">
          <mxGeometry width="100" height="100" relative="1" as="geometry">
            <Array as="points" />
          </mxGeometry>
        </mxCell>
        <mxCell id="Y2x5lNRcQAVwNxMI_Fzu-81" value="" style="html=1;jettySize=18;whiteSpace=wrap;fontSize=13;fontFamily=Helvetica;strokeColor=#333333;strokeOpacity=100;strokeWidth=0.8;rounded=1;arcSize=10;edgeStyle=orthogonalEdgeStyle;startArrow=none;endArrow=block;endFill=1;exitX=0.996;exitY=0.5;exitPerimeter=0;entryX=0.5;entryY=-0.001;entryPerimeter=0;lucidId=l442F36g_A7B;" parent="Y2x5lNRcQAVwNxMI_Fzu-35" source="Y2x5lNRcQAVwNxMI_Fzu-83" target="Y2x5lNRcQAVwNxMI_Fzu-93" edge="1">
          <mxGeometry width="100" height="100" relative="1" as="geometry">
            <Array as="points" />
          </mxGeometry>
        </mxCell>
        <mxCell id="Y2x5lNRcQAVwNxMI_Fzu-82" value="No" style="text;html=1;resizable=0;labelBackgroundColor=default;align=center;verticalAlign=middle;fontStyle=1;fontColor=#3a414a;fontSize=16.7;" parent="Y2x5lNRcQAVwNxMI_Fzu-81" vertex="1">
          <mxGeometry x="-0.12300231451809707" relative="1" as="geometry" />
        </mxCell>
        <mxCell id="Y2x5lNRcQAVwNxMI_Fzu-83" value="Kỳ thi chưa có phách nào?" style="html=1;overflow=block;blockSpacing=1;whiteSpace=wrap;rhombus;fontSize=16.7;fontColor=#3a414a;spacingLeft=8.8;spacingRight=8.8;spacingTop=2.5;spacing=3.8;verticalAlign=middle;strokeColor=#1071e5;strokeOpacity=100;fillOpacity=100;rounded=1;absoluteArcSize=1;arcSize=7.5;fillColor=#ffffff;strokeWidth=2.3;lucidId=l442vU19-5CW;" parent="Y2x5lNRcQAVwNxMI_Fzu-35" vertex="1">
          <mxGeometry x="678" y="-1205" width="190" height="138" as="geometry" />
        </mxCell>
        <mxCell id="Y2x5lNRcQAVwNxMI_Fzu-84" value="" style="html=1;jettySize=18;whiteSpace=wrap;fontSize=16.7;fontColor=#3a414a;fontStyle=1;strokeColor=#333333;strokeOpacity=100;strokeWidth=0.8;rounded=1;arcSize=10;edgeStyle=orthogonalEdgeStyle;startArrow=none;endArrow=block;endFill=1;exitX=0.004;exitY=0.5;exitPerimeter=0;entryX=0.5;entryY=-0.004;entryPerimeter=0;lucidId=l442xb9R.qYM;" parent="Y2x5lNRcQAVwNxMI_Fzu-35" source="Y2x5lNRcQAVwNxMI_Fzu-83" target="Y2x5lNRcQAVwNxMI_Fzu-88" edge="1">
          <mxGeometry width="100" height="100" relative="1" as="geometry">
            <Array as="points">
              <mxPoint x="423" y="-1136" />
            </Array>
          </mxGeometry>
        </mxCell>
        <mxCell id="Y2x5lNRcQAVwNxMI_Fzu-85" value="Yes" style="text;html=1;resizable=0;labelBackgroundColor=default;align=center;verticalAlign=middle;fontStyle=1;fontColor=#3a414a;fontSize=16.7;" parent="Y2x5lNRcQAVwNxMI_Fzu-84" vertex="1">
          <mxGeometry x="-0.2522164369833607" relative="1" as="geometry" />
        </mxCell>
        <mxCell id="Y2x5lNRcQAVwNxMI_Fzu-86" value="Start" style="html=1;overflow=block;blockSpacing=1;whiteSpace=wrap;fontSize=16.7;fontColor=#3a414a;spacing=3.8;strokeColor=#3a414a;strokeOpacity=100;rounded=1;absoluteArcSize=1;arcSize=9;strokeWidth=0.8;lucidId=l442NdSLC.Tj;" parent="Y2x5lNRcQAVwNxMI_Fzu-35" vertex="1">
          <mxGeometry x="713" y="-1550" width="120" height="60" as="geometry" />
        </mxCell>
        <mxCell id="Y2x5lNRcQAVwNxMI_Fzu-87" value="" style="html=1;jettySize=18;whiteSpace=wrap;fontSize=13;strokeColor=#3a414a;strokeOpacity=100;strokeWidth=0.8;rounded=1;arcSize=12;edgeStyle=orthogonalEdgeStyle;startArrow=none;endArrow=block;endFill=1;exitX=0.5;exitY=1.006;exitPerimeter=0;entryX=0.5;entryY=-0.004;entryPerimeter=0;lucidId=l442UZYZ3TC3;" parent="Y2x5lNRcQAVwNxMI_Fzu-35" source="Y2x5lNRcQAVwNxMI_Fzu-86" target="Y2x5lNRcQAVwNxMI_Fzu-79" edge="1">
          <mxGeometry width="100" height="100" relative="1" as="geometry">
            <Array as="points" />
          </mxGeometry>
        </mxCell>
        <mxCell id="Y2x5lNRcQAVwNxMI_Fzu-88" value="Sinh phách cho kỳ thi" style="html=1;overflow=block;blockSpacing=1;whiteSpace=wrap;fontSize=16.7;fontColor=#3a414a;spacing=9;strokeColor=#3a414a;strokeOpacity=100;rounded=1;absoluteArcSize=1;arcSize=9;strokeWidth=0.8;lucidId=s-42EG7QDbs1;" parent="Y2x5lNRcQAVwNxMI_Fzu-35" vertex="1">
          <mxGeometry x="340" y="-1025" width="165" height="90" as="geometry" />
        </mxCell>
        <mxCell id="Y2x5lNRcQAVwNxMI_Fzu-89" value="Thông báo sinh phách thành công" style="html=1;overflow=block;blockSpacing=1;whiteSpace=wrap;fontSize=16.7;fontColor=#3a414a;spacing=9;strokeColor=#3a414a;strokeOpacity=100;rounded=1;absoluteArcSize=1;arcSize=9;strokeWidth=0.8;lucidId=x_42sJdRdm1W;" parent="Y2x5lNRcQAVwNxMI_Fzu-35" vertex="1">
          <mxGeometry x="340" y="-860" width="165" height="90" as="geometry" />
        </mxCell>
        <mxCell id="Y2x5lNRcQAVwNxMI_Fzu-90" value="" style="html=1;jettySize=18;whiteSpace=wrap;fontSize=13;strokeColor=#3a414a;strokeOpacity=100;strokeWidth=0.8;rounded=1;arcSize=12;edgeStyle=orthogonalEdgeStyle;startArrow=none;endArrow=block;endFill=1;exitX=0.5;exitY=1.004;exitPerimeter=0;entryX=0.5;entryY=-0.004;entryPerimeter=0;lucidId=D_42~an__h0V;" parent="Y2x5lNRcQAVwNxMI_Fzu-35" source="Y2x5lNRcQAVwNxMI_Fzu-88" target="Y2x5lNRcQAVwNxMI_Fzu-89" edge="1">
          <mxGeometry width="100" height="100" relative="1" as="geometry">
            <Array as="points" />
          </mxGeometry>
        </mxCell>
        <mxCell id="Y2x5lNRcQAVwNxMI_Fzu-91" value="Lấy giá trị số phách bắt đầu của kỳ thi" style="html=1;overflow=block;blockSpacing=1;whiteSpace=wrap;fontSize=16.7;fontColor=#3a414a;spacing=9;strokeColor=#3a414a;strokeOpacity=100;rounded=1;absoluteArcSize=1;arcSize=9;strokeWidth=0.8;lucidId=o.428B-HGDA-;" parent="Y2x5lNRcQAVwNxMI_Fzu-35" vertex="1">
          <mxGeometry x="1270" y="-888" width="225" height="90" as="geometry" />
        </mxCell>
        <mxCell id="Y2x5lNRcQAVwNxMI_Fzu-92" value="Xoá phách cũ của kỳ thi" style="html=1;overflow=block;blockSpacing=1;whiteSpace=wrap;fontSize=16.7;fontColor=#3a414a;spacing=9;strokeColor=#3a414a;strokeOpacity=100;rounded=1;absoluteArcSize=1;arcSize=9;strokeWidth=0.8;lucidId=o.42J9bFnOd1;" parent="Y2x5lNRcQAVwNxMI_Fzu-35" vertex="1">
          <mxGeometry x="730" y="-860" width="165" height="90" as="geometry" />
        </mxCell>
        <mxCell id="Y2x5lNRcQAVwNxMI_Fzu-93" value="&lt;div&gt;Hỏi quản trị có muốn&lt;/div&gt;&lt;div&gt;xoá phách cũ để sinh lại&lt;/div&gt;&lt;div&gt;phách mới không?&lt;/div&gt;" style="html=1;overflow=block;blockSpacing=1;whiteSpace=wrap;rhombus;fontSize=16.7;fontColor=#3a414a;spacingLeft=8.8;spacingRight=8.8;spacingTop=2.5;spacing=3.8;verticalAlign=middle;strokeColor=#1071e5;strokeOpacity=100;fillOpacity=100;rounded=1;absoluteArcSize=1;arcSize=7.5;fillColor=#ffffff;strokeWidth=2.3;lucidId=r~42AoOni9XZ;" parent="Y2x5lNRcQAVwNxMI_Fzu-35" vertex="1">
          <mxGeometry x="940" y="-1051" width="270" height="157" as="geometry" />
        </mxCell>
        <mxCell id="Y2x5lNRcQAVwNxMI_Fzu-94" value="" style="html=1;jettySize=18;whiteSpace=wrap;fontSize=13;fontFamily=Helvetica;strokeColor=#333333;strokeOpacity=100;strokeWidth=0.8;rounded=1;arcSize=10;edgeStyle=orthogonalEdgeStyle;startArrow=none;endArrow=block;endFill=1;exitX=0.004;exitY=0.5;exitPerimeter=0;entryX=0.5;entryY=-0.004;entryPerimeter=0;lucidId=vb52nJi0BUBK;" parent="Y2x5lNRcQAVwNxMI_Fzu-35" source="Y2x5lNRcQAVwNxMI_Fzu-93" target="Y2x5lNRcQAVwNxMI_Fzu-92" edge="1">
          <mxGeometry width="100" height="100" relative="1" as="geometry">
            <Array as="points" />
          </mxGeometry>
        </mxCell>
        <mxCell id="Y2x5lNRcQAVwNxMI_Fzu-95" value="Yes" style="text;html=1;resizable=0;labelBackgroundColor=default;align=center;verticalAlign=middle;fontStyle=1;fontColor=#3a414a;fontSize=16.7;" parent="Y2x5lNRcQAVwNxMI_Fzu-94" vertex="1">
          <mxGeometry x="-0.3895358210088624" relative="1" as="geometry">
            <mxPoint as="offset" />
          </mxGeometry>
        </mxCell>
        <mxCell id="Y2x5lNRcQAVwNxMI_Fzu-96" value="" style="html=1;jettySize=18;whiteSpace=wrap;fontSize=13;fontFamily=Helvetica;strokeColor=#333333;strokeOpacity=100;strokeWidth=0.8;rounded=1;arcSize=10;edgeStyle=orthogonalEdgeStyle;startArrow=none;endArrow=block;endFill=1;exitX=0.996;exitY=0.5;exitPerimeter=0;entryX=0.5;entryY=-0.004;entryPerimeter=0;lucidId=Qb524KOCt6rm;" parent="Y2x5lNRcQAVwNxMI_Fzu-35" source="Y2x5lNRcQAVwNxMI_Fzu-93" target="Y2x5lNRcQAVwNxMI_Fzu-91" edge="1">
          <mxGeometry width="100" height="100" relative="1" as="geometry">
            <Array as="points" />
          </mxGeometry>
        </mxCell>
        <mxCell id="Y2x5lNRcQAVwNxMI_Fzu-97" value="No" style="text;html=1;resizable=0;labelBackgroundColor=default;align=center;verticalAlign=middle;fontStyle=1;fontColor=#3a414a;fontSize=16.7;" parent="Y2x5lNRcQAVwNxMI_Fzu-96" vertex="1">
          <mxGeometry x="-0.3549401657535064" relative="1" as="geometry">
            <mxPoint as="offset" />
          </mxGeometry>
        </mxCell>
        <mxCell id="Y2x5lNRcQAVwNxMI_Fzu-99" value="" style="html=1;jettySize=18;whiteSpace=wrap;fontSize=13;strokeColor=#3a414a;strokeOpacity=100;strokeWidth=0.8;rounded=1;arcSize=12;edgeStyle=orthogonalEdgeStyle;startArrow=none;endArrow=block;endFill=1;exitX=0.5;exitY=1.004;exitPerimeter=0;lucidId=od52RkPEWGpd;entryX=0.5;entryY=0;entryDx=0;entryDy=0;" parent="Y2x5lNRcQAVwNxMI_Fzu-35" source="Y2x5lNRcQAVwNxMI_Fzu-92" target="mtZD5bVNZ8ImA-KU60Yu-186" edge="1">
          <mxGeometry width="100" height="100" relative="1" as="geometry">
            <Array as="points" />
            <mxPoint x="813" y="-730" as="targetPoint" />
          </mxGeometry>
        </mxCell>
        <mxCell id="Y2x5lNRcQAVwNxMI_Fzu-100" value="Thông báo sinh phách thành công" style="html=1;overflow=block;blockSpacing=1;whiteSpace=wrap;fontSize=16.7;fontColor=#3a414a;spacing=9;strokeColor=#3a414a;strokeOpacity=100;rounded=1;absoluteArcSize=1;arcSize=9;strokeWidth=0.8;lucidId=Vd5282ZcRgbX;" parent="Y2x5lNRcQAVwNxMI_Fzu-35" vertex="1">
          <mxGeometry x="470" y="-540" width="165" height="90" as="geometry" />
        </mxCell>
        <mxCell id="Y2x5lNRcQAVwNxMI_Fzu-102" value="Đếm số phách đã có của kỳ thi" style="html=1;overflow=block;blockSpacing=1;whiteSpace=wrap;fontSize=16.7;fontColor=#3a414a;spacing=9;strokeColor=#3a414a;strokeOpacity=100;rounded=1;absoluteArcSize=1;arcSize=9;strokeWidth=0.8;lucidId=mf52nzvN_Ty7;" parent="Y2x5lNRcQAVwNxMI_Fzu-35" vertex="1">
          <mxGeometry x="1300" y="-723" width="165" height="90" as="geometry" />
        </mxCell>
        <mxCell id="Y2x5lNRcQAVwNxMI_Fzu-104" value="Lấy danh sách các thí sinh chưa được sinh phách" style="html=1;overflow=block;blockSpacing=1;whiteSpace=wrap;fontSize=16.7;fontColor=#3a414a;spacing=9;strokeColor=#3a414a;strokeOpacity=100;rounded=1;absoluteArcSize=1;arcSize=9;strokeWidth=0.8;lucidId=tf52pOn9iKhw;" parent="Y2x5lNRcQAVwNxMI_Fzu-35" vertex="1">
          <mxGeometry x="1300" y="-560" width="165" height="90" as="geometry" />
        </mxCell>
        <mxCell id="Y2x5lNRcQAVwNxMI_Fzu-108" value="" style="html=1;jettySize=18;whiteSpace=wrap;fontSize=13;fontFamily=Helvetica;strokeColor=#333333;strokeOpacity=100;strokeWidth=0.8;rounded=1;arcSize=10;edgeStyle=orthogonalEdgeStyle;startArrow=none;endArrow=block;endFill=1;exitX=0;exitY=0.5;lucidId=etI2iA-WQSgF;exitDx=0;exitDy=0;entryX=1;entryY=0.5;entryDx=0;entryDy=0;" parent="Y2x5lNRcQAVwNxMI_Fzu-35" source="Y2x5lNRcQAVwNxMI_Fzu-41" target="Y2x5lNRcQAVwNxMI_Fzu-40" edge="1">
          <mxGeometry width="100" height="100" relative="1" as="geometry">
            <Array as="points">
              <mxPoint x="-936" y="-1991" />
            </Array>
            <mxPoint x="-1072" y="-1945" as="sourcePoint" />
            <mxPoint x="-1150" y="-1990" as="targetPoint" />
          </mxGeometry>
        </mxCell>
        <mxCell id="Y2x5lNRcQAVwNxMI_Fzu-109" value="Yes" style="text;html=1;resizable=0;labelBackgroundColor=default;align=center;verticalAlign=middle;fontStyle=1;fontColor=#3a414a;fontSize=16.7;" parent="Y2x5lNRcQAVwNxMI_Fzu-108" vertex="1">
          <mxGeometry x="-0.12300231451809707" relative="1" as="geometry" />
        </mxCell>
        <mxCell id="Y2x5lNRcQAVwNxMI_Fzu-106" value="New Layer" parent="WIyWlLk6GJQsqaUBKTNV-0" />
        <mxCell id="WIyWlLk6GJQsqaUBKTNV-1" parent="WIyWlLk6GJQsqaUBKTNV-0" />
        <mxCell id="Y2x5lNRcQAVwNxMI_Fzu-113" value="" style="endArrow=classic;html=1;rounded=0;entryX=0.5;entryY=0;entryDx=0;entryDy=0;exitX=0.5;exitY=1;exitDx=0;exitDy=0;" parent="WIyWlLk6GJQsqaUBKTNV-1" source="Y2x5lNRcQAVwNxMI_Fzu-104" target="mtZD5bVNZ8ImA-KU60Yu-193" edge="1">
          <mxGeometry width="50" height="50" relative="1" as="geometry">
            <mxPoint x="1360" y="-380" as="sourcePoint" />
            <mxPoint x="1382.5" y="-410" as="targetPoint" />
          </mxGeometry>
        </mxCell>
        <mxCell id="Y2x5lNRcQAVwNxMI_Fzu-114" value="" style="endArrow=classic;html=1;rounded=0;exitX=0.5;exitY=1;exitDx=0;exitDy=0;entryX=0.5;entryY=0;entryDx=0;entryDy=0;" parent="WIyWlLk6GJQsqaUBKTNV-1" source="Y2x5lNRcQAVwNxMI_Fzu-102" target="Y2x5lNRcQAVwNxMI_Fzu-104" edge="1">
          <mxGeometry width="50" height="50" relative="1" as="geometry">
            <mxPoint x="1360" y="-550" as="sourcePoint" />
            <mxPoint x="1410" y="-600" as="targetPoint" />
          </mxGeometry>
        </mxCell>
        <mxCell id="Y2x5lNRcQAVwNxMI_Fzu-115" value="" style="endArrow=classic;html=1;rounded=0;entryX=0.5;entryY=0;entryDx=0;entryDy=0;exitX=0.5;exitY=1;exitDx=0;exitDy=0;" parent="WIyWlLk6GJQsqaUBKTNV-1" source="Y2x5lNRcQAVwNxMI_Fzu-91" target="Y2x5lNRcQAVwNxMI_Fzu-102" edge="1">
          <mxGeometry width="50" height="50" relative="1" as="geometry">
            <mxPoint x="1380" y="-790" as="sourcePoint" />
            <mxPoint x="1410" y="-770" as="targetPoint" />
          </mxGeometry>
        </mxCell>
        <mxCell id="mtZD5bVNZ8ImA-KU60Yu-132" value="Nhập danh sách Sinh viên dự thi từ file excel" style="html=1;overflow=block;blockSpacing=1;whiteSpace=wrap;fontSize=16.7;fontFamily=Helvetica;fontColor=#3a414a;spacing=3.8;strokeColor=#3a414a;strokeOpacity=100;fillOpacity=100;rounded=1;absoluteArcSize=1;arcSize=7.5;fillColor=#cfe4ff;strokeWidth=0.8;lucidId=etI2NNhPbbnq;" parent="WIyWlLk6GJQsqaUBKTNV-1" vertex="1">
          <mxGeometry x="-750" y="-1385" width="191" height="98" as="geometry" />
        </mxCell>
        <mxCell id="mtZD5bVNZ8ImA-KU60Yu-133" value="" style="html=1;jettySize=18;whiteSpace=wrap;fontSize=13;fontFamily=Helvetica;strokeColor=#333333;strokeOpacity=100;strokeWidth=0.8;rounded=1;arcSize=10;edgeStyle=orthogonalEdgeStyle;startArrow=none;endArrow=block;endFill=1;exitX=0.5;exitY=1.004;exitPerimeter=0;entryX=0.501;entryY=0.001;entryPerimeter=0;lucidId=etI2RXQ-GxS4;" parent="WIyWlLk6GJQsqaUBKTNV-1" source="mtZD5bVNZ8ImA-KU60Yu-132" target="mtZD5bVNZ8ImA-KU60Yu-137" edge="1">
          <mxGeometry width="100" height="100" relative="1" as="geometry">
            <Array as="points" />
          </mxGeometry>
        </mxCell>
        <mxCell id="mtZD5bVNZ8ImA-KU60Yu-134" value="" style="html=1;jettySize=18;whiteSpace=wrap;fontSize=13;fontFamily=Helvetica;strokeColor=#333333;strokeOpacity=100;strokeWidth=0.8;rounded=1;arcSize=10;edgeStyle=orthogonalEdgeStyle;startArrow=none;endArrow=block;endFill=1;exitX=0.996;exitY=0.5;exitPerimeter=0;entryX=0.5;entryY=-0.004;entryPerimeter=0;lucidId=etI2iA-WQSgF;" parent="WIyWlLk6GJQsqaUBKTNV-1" source="mtZD5bVNZ8ImA-KU60Yu-137" target="mtZD5bVNZ8ImA-KU60Yu-165" edge="1">
          <mxGeometry width="100" height="100" relative="1" as="geometry">
            <Array as="points" />
          </mxGeometry>
        </mxCell>
        <mxCell id="mtZD5bVNZ8ImA-KU60Yu-135" value="No" style="text;html=1;resizable=0;labelBackgroundColor=default;align=center;verticalAlign=middle;fontStyle=1;fontColor=#3a414a;fontSize=16.7;" parent="mtZD5bVNZ8ImA-KU60Yu-134" vertex="1">
          <mxGeometry x="-0.12300231451809707" relative="1" as="geometry" />
        </mxCell>
        <mxCell id="mtZD5bVNZ8ImA-KU60Yu-136" value="Lưu dữ liệu vào bảng StudentExam" style="html=1;overflow=block;blockSpacing=1;whiteSpace=wrap;fontSize=16.7;fontFamily=Helvetica;fontColor=#3a414a;spacing=3.8;strokeColor=#3a414a;strokeOpacity=100;fillOpacity=100;rounded=1;absoluteArcSize=1;arcSize=7.5;fillColor=#cfe4ff;strokeWidth=0.8;lucidId=etI238ScHZtL;" parent="WIyWlLk6GJQsqaUBKTNV-1" vertex="1">
          <mxGeometry x="-863" y="-874" width="191" height="98" as="geometry" />
        </mxCell>
        <mxCell id="mtZD5bVNZ8ImA-KU60Yu-137" value="Dữ liệu hợp lệ" style="html=1;overflow=block;blockSpacing=1;whiteSpace=wrap;rhombus;fontSize=16.7;fontColor=#3a414a;spacingLeft=8.8;spacingRight=8.8;spacingTop=2.5;spacing=3.8;verticalAlign=middle;strokeColor=#1071e5;strokeOpacity=100;fillOpacity=100;rounded=1;absoluteArcSize=1;arcSize=7.5;fillColor=#ffffff;strokeWidth=2.3;lucidId=etI2R~uESKi-;" parent="WIyWlLk6GJQsqaUBKTNV-1" vertex="1">
          <mxGeometry x="-750" y="-1205" width="190" height="138" as="geometry" />
        </mxCell>
        <mxCell id="mtZD5bVNZ8ImA-KU60Yu-138" value="" style="html=1;jettySize=18;whiteSpace=wrap;fontSize=13;strokeColor=#3a414a;strokeOpacity=100;strokeWidth=0.8;rounded=1;arcSize=12;edgeStyle=orthogonalEdgeStyle;startArrow=none;endArrow=block;endFill=1;entryX=0.5;entryY=-0.004;entryPerimeter=0;lucidId=kEI2bVaWqiKv;" parent="WIyWlLk6GJQsqaUBKTNV-1" target="mtZD5bVNZ8ImA-KU60Yu-136" edge="1">
          <mxGeometry width="100" height="100" relative="1" as="geometry">
            <Array as="points" />
            <mxPoint x="-1088" y="-935" as="sourcePoint" />
          </mxGeometry>
        </mxCell>
        <mxCell id="mtZD5bVNZ8ImA-KU60Yu-139" value="Lưu dữ liệu vào bảng Student" style="html=1;overflow=block;blockSpacing=1;whiteSpace=wrap;fontSize=16.7;fontFamily=Helvetica;fontColor=#3a414a;spacing=3.8;strokeColor=#3a414a;strokeOpacity=100;fillOpacity=100;rounded=1;absoluteArcSize=1;arcSize=7.5;fillColor=#cfe4ff;strokeWidth=0.8;lucidId=9FI2TjJxOzfs;" parent="WIyWlLk6GJQsqaUBKTNV-1" vertex="1">
          <mxGeometry x="-1513" y="-860" width="191" height="98" as="geometry" />
        </mxCell>
        <mxCell id="mtZD5bVNZ8ImA-KU60Yu-140" value="" style="html=1;jettySize=18;whiteSpace=wrap;fontSize=13;strokeColor=#3a414a;strokeOpacity=100;strokeWidth=0.8;rounded=1;arcSize=12;edgeStyle=orthogonalEdgeStyle;startArrow=none;endArrow=block;endFill=1;entryX=0.5;entryY=-0.004;entryPerimeter=0;lucidId=9FI2rgs_bPKK;" parent="WIyWlLk6GJQsqaUBKTNV-1" target="mtZD5bVNZ8ImA-KU60Yu-139" edge="1">
          <mxGeometry width="100" height="100" relative="1" as="geometry">
            <Array as="points" />
            <mxPoint x="-1088" y="-935" as="sourcePoint" />
          </mxGeometry>
        </mxCell>
        <mxCell id="mtZD5bVNZ8ImA-KU60Yu-141" value="Dữ liệu sinh viên chưa có trong bảng Student" style="html=1;overflow=block;blockSpacing=1;whiteSpace=wrap;rhombus;fontSize=16.7;fontColor=#3a414a;spacing=3.8;strokeColor=#1071e5;strokeOpacity=100;fillOpacity=100;rounded=1;absoluteArcSize=1;arcSize=7.5;fillColor=#ffffff;strokeWidth=2.3;lucidId=gHI2F8ODVGRT;" parent="WIyWlLk6GJQsqaUBKTNV-1" vertex="1">
          <mxGeometry x="-1520" y="-680" width="205" height="129" as="geometry" />
        </mxCell>
        <mxCell id="mtZD5bVNZ8ImA-KU60Yu-142" value="" style="html=1;jettySize=18;whiteSpace=wrap;fontSize=13;strokeColor=#3a414a;strokeOpacity=100;strokeWidth=0.8;rounded=1;arcSize=12;edgeStyle=orthogonalEdgeStyle;startArrow=none;endArrow=block;endFill=1;exitX=0.5;exitY=1.004;exitPerimeter=0;entryX=0.5;entryY=0;entryPerimeter=0;lucidId=wHI2XmJcDlf_;" parent="WIyWlLk6GJQsqaUBKTNV-1" source="mtZD5bVNZ8ImA-KU60Yu-139" target="mtZD5bVNZ8ImA-KU60Yu-141" edge="1">
          <mxGeometry width="100" height="100" relative="1" as="geometry">
            <Array as="points" />
          </mxGeometry>
        </mxCell>
        <mxCell id="mtZD5bVNZ8ImA-KU60Yu-143" value="" style="html=1;jettySize=18;whiteSpace=wrap;fontSize=16.7;fontColor=#3a414a;fontStyle=1;strokeColor=#333333;strokeOpacity=100;strokeWidth=0.8;rounded=1;arcSize=10;edgeStyle=orthogonalEdgeStyle;startArrow=none;endArrow=block;endFill=1;exitX=0.5;exitY=1;exitPerimeter=0;entryX=0.5;entryY=-0.004;entryPerimeter=0;lucidId=1II2tzdSmmuJ;" parent="WIyWlLk6GJQsqaUBKTNV-1" source="mtZD5bVNZ8ImA-KU60Yu-141" target="mtZD5bVNZ8ImA-KU60Yu-157" edge="1">
          <mxGeometry width="100" height="100" relative="1" as="geometry">
            <Array as="points" />
          </mxGeometry>
        </mxCell>
        <mxCell id="mtZD5bVNZ8ImA-KU60Yu-144" value="Yes" style="text;html=1;resizable=0;labelBackgroundColor=default;align=center;verticalAlign=middle;fontStyle=1;fontColor=#3a414a;fontSize=16.7;" parent="mtZD5bVNZ8ImA-KU60Yu-143" vertex="1">
          <mxGeometry x="-0.2522164369833607" relative="1" as="geometry" />
        </mxCell>
        <mxCell id="mtZD5bVNZ8ImA-KU60Yu-145" value="&lt;div&gt;Kiểm tra dữ liệu trong&lt;/div&gt;&lt;div&gt;bảng StudentExam&amp;nbsp;&lt;/div&gt;&lt;div&gt;đã có chưa?&lt;/div&gt;" style="html=1;overflow=block;blockSpacing=1;whiteSpace=wrap;rhombus;fontSize=16.7;fontColor=#3a414a;spacing=3.8;strokeColor=#1071e5;strokeOpacity=100;fillOpacity=100;rounded=1;absoluteArcSize=1;arcSize=7.5;fillColor=#ffffff;strokeWidth=2.3;lucidId=lOI2fi400GVt;" parent="WIyWlLk6GJQsqaUBKTNV-1" vertex="1">
          <mxGeometry x="-912" y="-695" width="258" height="129" as="geometry" />
        </mxCell>
        <mxCell id="mtZD5bVNZ8ImA-KU60Yu-146" value="" style="html=1;jettySize=18;whiteSpace=wrap;fontSize=13;strokeColor=#3a414a;strokeOpacity=100;strokeWidth=0.8;rounded=1;arcSize=12;edgeStyle=orthogonalEdgeStyle;startArrow=none;endArrow=block;endFill=1;entryX=0.5;entryY=-0.002;entryPerimeter=0;lucidId=lOI2v9v~bcL8;exitX=0.54;exitY=1.004;exitDx=0;exitDy=0;exitPerimeter=0;" parent="WIyWlLk6GJQsqaUBKTNV-1" source="mtZD5bVNZ8ImA-KU60Yu-136" target="mtZD5bVNZ8ImA-KU60Yu-145" edge="1">
          <mxGeometry width="100" height="100" relative="1" as="geometry">
            <Array as="points" />
            <mxPoint x="-783" y="-790" as="sourcePoint" />
          </mxGeometry>
        </mxCell>
        <mxCell id="mtZD5bVNZ8ImA-KU60Yu-147" value="" style="html=1;jettySize=18;whiteSpace=wrap;fontSize=16.7;fontColor=#3a414a;fontStyle=1;strokeColor=#333333;strokeOpacity=100;strokeWidth=0.8;rounded=1;arcSize=10;edgeStyle=orthogonalEdgeStyle;startArrow=none;endArrow=block;endFill=1;exitX=0.005;exitY=0.5;exitPerimeter=0;entryX=0.5;entryY=0;entryPerimeter=0;lucidId=yPI2lHK~xxdt;" parent="WIyWlLk6GJQsqaUBKTNV-1" source="mtZD5bVNZ8ImA-KU60Yu-145" target="mtZD5bVNZ8ImA-KU60Yu-151" edge="1">
          <mxGeometry width="100" height="100" relative="1" as="geometry">
            <Array as="points">
              <mxPoint x="-953" y="-630" />
            </Array>
          </mxGeometry>
        </mxCell>
        <mxCell id="mtZD5bVNZ8ImA-KU60Yu-148" value="Yes" style="text;html=1;resizable=0;labelBackgroundColor=default;align=center;verticalAlign=middle;fontStyle=1;fontColor=#3a414a;fontSize=16.7;" parent="mtZD5bVNZ8ImA-KU60Yu-147" vertex="1">
          <mxGeometry x="-0.2522164369833607" relative="1" as="geometry" />
        </mxCell>
        <mxCell id="mtZD5bVNZ8ImA-KU60Yu-149" value="" style="html=1;jettySize=18;whiteSpace=wrap;fontSize=16.7;fontColor=#3a414a;fontStyle=1;strokeColor=#333333;strokeOpacity=100;strokeWidth=0.8;rounded=1;arcSize=10;edgeStyle=orthogonalEdgeStyle;startArrow=none;endArrow=block;endFill=1;exitX=0.995;exitY=0.5;exitPerimeter=0;entryX=0.5;entryY=-0.005;entryPerimeter=0;lucidId=WQI2sUd2HeTJ;" parent="WIyWlLk6GJQsqaUBKTNV-1" source="mtZD5bVNZ8ImA-KU60Yu-145" target="mtZD5bVNZ8ImA-KU60Yu-160" edge="1">
          <mxGeometry width="100" height="100" relative="1" as="geometry">
            <Array as="points">
              <mxPoint x="-553" y="-630" />
            </Array>
          </mxGeometry>
        </mxCell>
        <mxCell id="mtZD5bVNZ8ImA-KU60Yu-150" value="No" style="text;html=1;resizable=0;labelBackgroundColor=default;align=center;verticalAlign=middle;fontStyle=1;fontColor=#3a414a;fontSize=16.7;" parent="mtZD5bVNZ8ImA-KU60Yu-149" vertex="1">
          <mxGeometry x="-0.2522164369833607" relative="1" as="geometry" />
        </mxCell>
        <mxCell id="mtZD5bVNZ8ImA-KU60Yu-151" value="&lt;div&gt;Xoá dữ liệu cũ để ghi đè&amp;nbsp;&lt;/div&gt;&lt;div&gt;dữ liệu mới&lt;/div&gt;" style="html=1;overflow=block;blockSpacing=1;whiteSpace=wrap;rhombus;fontSize=16.7;fontColor=#3a414a;spacing=3.8;strokeColor=#1071e5;strokeOpacity=100;fillOpacity=100;rounded=1;absoluteArcSize=1;arcSize=7.5;fillColor=#ffffff;strokeWidth=2.3;lucidId=wRI2XRxVngxC;" parent="WIyWlLk6GJQsqaUBKTNV-1" vertex="1">
          <mxGeometry x="-1083" y="-520" width="260" height="183" as="geometry" />
        </mxCell>
        <mxCell id="mtZD5bVNZ8ImA-KU60Yu-152" value="" style="html=1;jettySize=18;whiteSpace=wrap;fontSize=16.7;fontColor=#3a414a;fontStyle=1;strokeColor=#333333;strokeOpacity=100;strokeWidth=0.8;rounded=1;arcSize=10;edgeStyle=orthogonalEdgeStyle;startArrow=none;endArrow=block;endFill=1;exitX=0.003;exitY=0.5;exitPerimeter=0;entryX=0.5;entryY=-0.004;entryPerimeter=0;lucidId=HSI2pwr~poLn;" parent="WIyWlLk6GJQsqaUBKTNV-1" source="mtZD5bVNZ8ImA-KU60Yu-151" target="mtZD5bVNZ8ImA-KU60Yu-158" edge="1">
          <mxGeometry width="100" height="100" relative="1" as="geometry">
            <Array as="points">
              <mxPoint x="-1188" y="-431" />
            </Array>
          </mxGeometry>
        </mxCell>
        <mxCell id="mtZD5bVNZ8ImA-KU60Yu-153" value="Yes" style="text;html=1;resizable=0;labelBackgroundColor=default;align=center;verticalAlign=middle;fontStyle=1;fontColor=#3a414a;fontSize=16.7;" parent="mtZD5bVNZ8ImA-KU60Yu-152" vertex="1">
          <mxGeometry x="-0.5730849032627194" relative="1" as="geometry" />
        </mxCell>
        <mxCell id="mtZD5bVNZ8ImA-KU60Yu-154" value="" style="html=1;jettySize=18;whiteSpace=wrap;fontSize=16.7;fontColor=#3a414a;fontStyle=1;strokeColor=#333333;strokeOpacity=100;strokeWidth=0.8;rounded=1;arcSize=10;edgeStyle=orthogonalEdgeStyle;startArrow=none;endArrow=block;endFill=1;exitX=0.997;exitY=0.5;exitPerimeter=0;entryX=0.5;entryY=-0.004;entryPerimeter=0;lucidId=8TI2INDWvAAX;" parent="WIyWlLk6GJQsqaUBKTNV-1" source="mtZD5bVNZ8ImA-KU60Yu-151" target="mtZD5bVNZ8ImA-KU60Yu-159" edge="1">
          <mxGeometry width="100" height="100" relative="1" as="geometry">
            <Array as="points">
              <mxPoint x="-749" y="-431" />
            </Array>
          </mxGeometry>
        </mxCell>
        <mxCell id="mtZD5bVNZ8ImA-KU60Yu-155" value="No" style="text;html=1;resizable=0;labelBackgroundColor=default;align=center;verticalAlign=middle;fontStyle=1;fontColor=#3a414a;fontSize=16.7;" parent="mtZD5bVNZ8ImA-KU60Yu-154" vertex="1">
          <mxGeometry x="-0.6554684461394469" relative="1" as="geometry" />
        </mxCell>
        <mxCell id="mtZD5bVNZ8ImA-KU60Yu-156" value="Không phải file Excel" style="html=1;overflow=block;blockSpacing=1;whiteSpace=wrap;fontSize=16.7;fontColor=#3a414a;spacing=9;strokeColor=#3a414a;strokeOpacity=100;rounded=1;absoluteArcSize=1;arcSize=9;strokeWidth=0.8;lucidId=sWI2o0M55bDM;" parent="WIyWlLk6GJQsqaUBKTNV-1" vertex="1">
          <mxGeometry x="-548" y="-860" width="165" height="90" as="geometry" />
        </mxCell>
        <mxCell id="mtZD5bVNZ8ImA-KU60Yu-157" value="Lưu dữ liệu vào bảng Student" style="html=1;overflow=block;blockSpacing=1;whiteSpace=wrap;fontSize=16.7;fontColor=#3a414a;spacing=9;strokeColor=#3a414a;strokeOpacity=100;rounded=1;absoluteArcSize=1;arcSize=9;strokeWidth=0.8;lucidId=VWI2NCz.As~M;" parent="WIyWlLk6GJQsqaUBKTNV-1" vertex="1">
          <mxGeometry x="-1478" y="-468" width="120" height="90" as="geometry" />
        </mxCell>
        <mxCell id="mtZD5bVNZ8ImA-KU60Yu-158" value="Ghi đè dữ liệu mới vào bảng StudentExam của kỳ thi" style="html=1;overflow=block;blockSpacing=1;whiteSpace=wrap;fontSize=16.7;fontColor=#3a414a;spacing=9;strokeColor=#3a414a;strokeOpacity=100;rounded=1;absoluteArcSize=1;arcSize=9;strokeWidth=0.8;lucidId=vXI2QaFNVYUw;" parent="WIyWlLk6GJQsqaUBKTNV-1" vertex="1">
          <mxGeometry x="-1283" y="-260" width="190" height="88" as="geometry" />
        </mxCell>
        <mxCell id="mtZD5bVNZ8ImA-KU60Yu-159" value="Ghi bổ sung dữ liệu vào bảng StudentExam của kỳ thi" style="html=1;overflow=block;blockSpacing=1;whiteSpace=wrap;fontSize=16.7;fontColor=#3a414a;spacing=9;strokeColor=#3a414a;strokeOpacity=100;rounded=1;absoluteArcSize=1;arcSize=9;strokeWidth=0.8;lucidId=_YI2.ERfRujX;" parent="WIyWlLk6GJQsqaUBKTNV-1" vertex="1">
          <mxGeometry x="-844" y="-265" width="190" height="98" as="geometry" />
        </mxCell>
        <mxCell id="mtZD5bVNZ8ImA-KU60Yu-160" value="Ghi dữ liệu vào bảng StudentExam" style="html=1;overflow=block;blockSpacing=1;whiteSpace=wrap;fontSize=16.7;fontColor=#3a414a;spacing=9;strokeColor=#3a414a;strokeOpacity=100;rounded=1;absoluteArcSize=1;arcSize=9;strokeWidth=0.8;lucidId=l0I287TNg5AM;" parent="WIyWlLk6GJQsqaUBKTNV-1" vertex="1">
          <mxGeometry x="-638" y="-470" width="170" height="78" as="geometry" />
        </mxCell>
        <mxCell id="mtZD5bVNZ8ImA-KU60Yu-161" value="" style="html=1;jettySize=18;whiteSpace=wrap;fontSize=13;strokeColor=#3a414a;strokeOpacity=100;strokeWidth=0.8;rounded=1;arcSize=12;edgeStyle=orthogonalEdgeStyle;startArrow=none;endArrow=block;endFill=1;exitX=-0.002;exitY=0.5;exitPerimeter=0;entryX=1.002;entryY=0.5;entryPerimeter=0;lucidId=B.Z2_M9sM1Cb;" parent="WIyWlLk6GJQsqaUBKTNV-1" source="mtZD5bVNZ8ImA-KU60Yu-132" target="mtZD5bVNZ8ImA-KU60Yu-162" edge="1">
          <mxGeometry width="100" height="100" relative="1" as="geometry">
            <Array as="points" />
          </mxGeometry>
        </mxCell>
        <mxCell id="mtZD5bVNZ8ImA-KU60Yu-162" value="Tải file excel mẫu" style="html=1;overflow=block;blockSpacing=1;whiteSpace=wrap;fontSize=16.7;fontFamily=Helvetica;fontColor=#3a414a;spacing=3.8;strokeColor=#3a414a;strokeOpacity=100;fillOpacity=100;rounded=1;absoluteArcSize=1;arcSize=7.5;fillColor=#cfe4ff;strokeWidth=0.8;lucidId=Q.Z2n7ODcdA3;" parent="WIyWlLk6GJQsqaUBKTNV-1" vertex="1">
          <mxGeometry x="-1148" y="-1385" width="191" height="98" as="geometry" />
        </mxCell>
        <mxCell id="mtZD5bVNZ8ImA-KU60Yu-163" value="Tải về file excel mẫu theo định dạng" style="html=1;overflow=block;blockSpacing=1;whiteSpace=wrap;fontSize=16.7;fontColor=#3a414a;spacing=9;strokeColor=#3a414a;strokeOpacity=100;rounded=1;absoluteArcSize=1;arcSize=9;strokeWidth=0.8;lucidId=n~Z2MHJ9ehHi;" parent="WIyWlLk6GJQsqaUBKTNV-1" vertex="1">
          <mxGeometry x="-1373" y="-1130" width="148" height="90" as="geometry" />
        </mxCell>
        <mxCell id="mtZD5bVNZ8ImA-KU60Yu-164" value="" style="html=1;jettySize=18;whiteSpace=wrap;fontSize=13;strokeColor=#3a414a;strokeOpacity=100;strokeWidth=0.8;rounded=1;arcSize=12;edgeStyle=orthogonalEdgeStyle;startArrow=none;endArrow=block;endFill=1;exitX=0.5;exitY=1.004;exitPerimeter=0;entryX=0.5;entryY=-0.004;entryPerimeter=0;lucidId=Db02hZ-D.KcY;" parent="WIyWlLk6GJQsqaUBKTNV-1" source="mtZD5bVNZ8ImA-KU60Yu-162" target="mtZD5bVNZ8ImA-KU60Yu-163" edge="1">
          <mxGeometry width="100" height="100" relative="1" as="geometry">
            <Array as="points">
              <mxPoint x="-1052" y="-1269" />
              <mxPoint x="-1053" y="-1269" />
              <mxPoint x="-1053" y="-1210" />
            </Array>
          </mxGeometry>
        </mxCell>
        <mxCell id="mtZD5bVNZ8ImA-KU60Yu-165" value="Thông báo cho người dùng" style="html=1;overflow=block;blockSpacing=1;whiteSpace=wrap;fontSize=16.7;fontFamily=Helvetica;fontColor=#3a414a;spacing=3.8;strokeColor=#3a414a;strokeOpacity=100;fillOpacity=100;rounded=1;absoluteArcSize=1;arcSize=7.5;fillColor=#cfe4ff;strokeWidth=0.8;lucidId=9C02dhXhYO4_;" parent="WIyWlLk6GJQsqaUBKTNV-1" vertex="1">
          <mxGeometry x="-353" y="-1025" width="236" height="105" as="geometry" />
        </mxCell>
        <mxCell id="mtZD5bVNZ8ImA-KU60Yu-166" value="Định dạng file không chính xác" style="html=1;overflow=block;blockSpacing=1;whiteSpace=wrap;fontSize=16.7;fontColor=#3a414a;spacing=9;strokeColor=#3a414a;strokeOpacity=100;rounded=1;absoluteArcSize=1;arcSize=9;strokeWidth=0.8;lucidId=BE02jiFEc6BS;" parent="WIyWlLk6GJQsqaUBKTNV-1" vertex="1">
          <mxGeometry x="-353" y="-860" width="165" height="90" as="geometry" />
        </mxCell>
        <mxCell id="mtZD5bVNZ8ImA-KU60Yu-167" value="File không có dữ liệu" style="html=1;overflow=block;blockSpacing=1;whiteSpace=wrap;fontSize=16.7;fontColor=#3a414a;spacing=9;strokeColor=#3a414a;strokeOpacity=100;rounded=1;absoluteArcSize=1;arcSize=9;strokeWidth=0.8;lucidId=RE022BQMSdT5;" parent="WIyWlLk6GJQsqaUBKTNV-1" vertex="1">
          <mxGeometry x="-158" y="-860" width="165" height="90" as="geometry" />
        </mxCell>
        <mxCell id="mtZD5bVNZ8ImA-KU60Yu-168" value="" style="html=1;jettySize=18;whiteSpace=wrap;fontSize=13;strokeColor=#3a414a;strokeOpacity=100;strokeWidth=0.8;rounded=1;arcSize=12;edgeStyle=orthogonalEdgeStyle;startArrow=none;endArrow=block;endFill=1;exitX=0.5;exitY=1.004;exitPerimeter=0;entryX=0.5;entryY=-0.004;entryPerimeter=0;lucidId=fF02~MAQwTRJ;" parent="WIyWlLk6GJQsqaUBKTNV-1" source="mtZD5bVNZ8ImA-KU60Yu-165" target="mtZD5bVNZ8ImA-KU60Yu-166" edge="1">
          <mxGeometry width="100" height="100" relative="1" as="geometry">
            <Array as="points" />
          </mxGeometry>
        </mxCell>
        <mxCell id="mtZD5bVNZ8ImA-KU60Yu-169" value="" style="html=1;jettySize=18;whiteSpace=wrap;fontSize=13;strokeColor=#3a414a;strokeOpacity=100;strokeWidth=0.8;rounded=1;arcSize=12;edgeStyle=orthogonalEdgeStyle;startArrow=none;endArrow=block;endFill=1;exitX=1.002;exitY=0.5;exitPerimeter=0;entryX=0.5;entryY=-0.004;entryPerimeter=0;lucidId=rF027XGLVJAu;" parent="WIyWlLk6GJQsqaUBKTNV-1" source="mtZD5bVNZ8ImA-KU60Yu-165" target="mtZD5bVNZ8ImA-KU60Yu-167" edge="1">
          <mxGeometry width="100" height="100" relative="1" as="geometry">
            <Array as="points" />
          </mxGeometry>
        </mxCell>
        <mxCell id="mtZD5bVNZ8ImA-KU60Yu-170" value="" style="html=1;jettySize=18;whiteSpace=wrap;fontSize=13;strokeColor=#3a414a;strokeOpacity=100;strokeWidth=0.8;rounded=1;arcSize=12;edgeStyle=orthogonalEdgeStyle;startArrow=none;endArrow=block;endFill=1;exitX=-0.002;exitY=0.5;exitPerimeter=0;entryX=0.5;entryY=-0.004;entryPerimeter=0;lucidId=zF026ahcJN2x;" parent="WIyWlLk6GJQsqaUBKTNV-1" source="mtZD5bVNZ8ImA-KU60Yu-165" target="mtZD5bVNZ8ImA-KU60Yu-156" edge="1">
          <mxGeometry width="100" height="100" relative="1" as="geometry">
            <Array as="points" />
          </mxGeometry>
        </mxCell>
        <mxCell id="mtZD5bVNZ8ImA-KU60Yu-171" value="Start" style="html=1;overflow=block;blockSpacing=1;whiteSpace=wrap;fontSize=16.7;fontColor=#3a414a;spacing=3.8;strokeColor=#3a414a;strokeOpacity=100;rounded=1;absoluteArcSize=1;arcSize=9;strokeWidth=0.8;lucidId=5F02H6.4qjMD;" parent="WIyWlLk6GJQsqaUBKTNV-1" vertex="1">
          <mxGeometry x="-715" y="-1550" width="120" height="60" as="geometry" />
        </mxCell>
        <mxCell id="mtZD5bVNZ8ImA-KU60Yu-172" value="" style="html=1;jettySize=18;whiteSpace=wrap;fontSize=13;strokeColor=#3a414a;strokeOpacity=100;strokeWidth=0.8;rounded=1;arcSize=12;edgeStyle=orthogonalEdgeStyle;startArrow=none;endArrow=block;endFill=1;exitX=0.5;exitY=1.006;exitPerimeter=0;entryX=0.5;entryY=-0.004;entryPerimeter=0;lucidId=gG02ivcvmwz-;" parent="WIyWlLk6GJQsqaUBKTNV-1" source="mtZD5bVNZ8ImA-KU60Yu-171" target="mtZD5bVNZ8ImA-KU60Yu-132" edge="1">
          <mxGeometry width="100" height="100" relative="1" as="geometry">
            <Array as="points" />
          </mxGeometry>
        </mxCell>
        <mxCell id="mtZD5bVNZ8ImA-KU60Yu-173" value="" style="html=1;jettySize=18;whiteSpace=wrap;fontSize=13;fontFamily=Helvetica;strokeColor=#333333;strokeOpacity=100;strokeWidth=0.8;rounded=1;arcSize=10;edgeStyle=orthogonalEdgeStyle;startArrow=none;endArrow=block;endFill=1;exitX=0;exitY=0.5;lucidId=etI2iA-WQSgF;exitDx=0;exitDy=0;" parent="WIyWlLk6GJQsqaUBKTNV-1" source="mtZD5bVNZ8ImA-KU60Yu-137" edge="1">
          <mxGeometry width="100" height="100" relative="1" as="geometry">
            <Array as="points">
              <mxPoint x="-863" y="-1136" />
              <mxPoint x="-863" y="-1060" />
              <mxPoint x="-1043" y="-1060" />
            </Array>
            <mxPoint x="-999" y="-1090" as="sourcePoint" />
            <mxPoint x="-1043" y="-930" as="targetPoint" />
          </mxGeometry>
        </mxCell>
        <mxCell id="mtZD5bVNZ8ImA-KU60Yu-174" value="Yes" style="text;html=1;resizable=0;labelBackgroundColor=default;align=center;verticalAlign=middle;fontStyle=1;fontColor=#3a414a;fontSize=16.7;" parent="mtZD5bVNZ8ImA-KU60Yu-173" vertex="1">
          <mxGeometry x="-0.12300231451809707" relative="1" as="geometry" />
        </mxCell>
        <mxCell id="mtZD5bVNZ8ImA-KU60Yu-175" value="" style="group;dropTarget=0;pointerEvents=0;container=1;collapsible=0;recursiveResize=0;" parent="WIyWlLk6GJQsqaUBKTNV-1" vertex="1">
          <mxGeometry x="-473" y="-290" as="geometry" />
        </mxCell>
        <mxCell id="mtZD5bVNZ8ImA-KU60Yu-176" value="" style="html=1;jettySize=18;whiteSpace=wrap;fontSize=13;strokeColor=#3a414a;strokeOpacity=100;strokeWidth=0.8;rounded=1;arcSize=12;edgeStyle=orthogonalEdgeStyle;startArrow=none;endArrow=block;endFill=1;exitX=1;exitY=0.5;entryX=0;entryY=0.5;lucidId=Db02hZ-D.KcY;exitDx=0;exitDy=0;entryDx=0;entryDy=0;" parent="WIyWlLk6GJQsqaUBKTNV-1" source="Y2x5lNRcQAVwNxMI_Fzu-77" target="Y2x5lNRcQAVwNxMI_Fzu-36" edge="1">
          <mxGeometry width="100" height="100" relative="1" as="geometry">
            <Array as="points">
              <mxPoint x="-1336" y="-2190" />
            </Array>
            <mxPoint x="-1430" y="-2180" as="sourcePoint" />
            <mxPoint x="-1183" y="-1859" as="targetPoint" />
          </mxGeometry>
        </mxCell>
        <mxCell id="mtZD5bVNZ8ImA-KU60Yu-178" value="" style="html=1;jettySize=18;whiteSpace=wrap;fontSize=13;strokeColor=#3a414a;strokeOpacity=100;strokeWidth=0.8;rounded=1;arcSize=12;edgeStyle=orthogonalEdgeStyle;startArrow=none;endArrow=block;endFill=1;entryX=0.5;entryY=0;lucidId=Db02hZ-D.KcY;entryDx=0;entryDy=0;exitX=1;exitY=0.5;exitDx=0;exitDy=0;" parent="WIyWlLk6GJQsqaUBKTNV-1" source="Y2x5lNRcQAVwNxMI_Fzu-69" target="Y2x5lNRcQAVwNxMI_Fzu-41" edge="1">
          <mxGeometry width="100" height="100" relative="1" as="geometry">
            <Array as="points">
              <mxPoint x="-730" y="-2189" />
              <mxPoint x="-728" y="-2190" />
            </Array>
            <mxPoint x="-840" y="-2185" as="sourcePoint" />
            <mxPoint x="-722.5" y="-2070" as="targetPoint" />
          </mxGeometry>
        </mxCell>
        <mxCell id="mtZD5bVNZ8ImA-KU60Yu-186" value="Sinh phách" style="html=1;overflow=block;blockSpacing=1;whiteSpace=wrap;rhombus;fontSize=16.7;fontColor=#3a414a;spacingLeft=8.8;spacingRight=8.8;spacingTop=2.5;spacing=3.8;verticalAlign=middle;strokeColor=#1071e5;strokeOpacity=100;fillOpacity=100;rounded=1;absoluteArcSize=1;arcSize=7.5;fillColor=#ffffff;strokeWidth=2.3;lucidId=r~42AoOni9XZ;" parent="WIyWlLk6GJQsqaUBKTNV-1" vertex="1">
          <mxGeometry x="677" y="-695" width="270" height="157" as="geometry" />
        </mxCell>
        <mxCell id="mtZD5bVNZ8ImA-KU60Yu-187" value="" style="html=1;jettySize=18;whiteSpace=wrap;fontSize=13;fontFamily=Helvetica;strokeColor=#333333;strokeOpacity=100;strokeWidth=0.8;rounded=1;arcSize=10;edgeStyle=orthogonalEdgeStyle;startArrow=none;endArrow=block;endFill=1;exitX=0.004;exitY=0.5;exitPerimeter=0;entryX=0.5;entryY=0;lucidId=vb52nJi0BUBK;entryDx=0;entryDy=0;" parent="WIyWlLk6GJQsqaUBKTNV-1" source="mtZD5bVNZ8ImA-KU60Yu-186" target="Y2x5lNRcQAVwNxMI_Fzu-100" edge="1">
          <mxGeometry width="100" height="100" relative="1" as="geometry">
            <Array as="points" />
            <mxPoint x="550" y="-504" as="targetPoint" />
          </mxGeometry>
        </mxCell>
        <mxCell id="mtZD5bVNZ8ImA-KU60Yu-188" value="Yes" style="text;html=1;resizable=0;labelBackgroundColor=default;align=center;verticalAlign=middle;fontStyle=1;fontColor=#3a414a;fontSize=16.7;" parent="mtZD5bVNZ8ImA-KU60Yu-187" vertex="1">
          <mxGeometry x="-0.3895358210088624" relative="1" as="geometry">
            <mxPoint as="offset" />
          </mxGeometry>
        </mxCell>
        <mxCell id="mtZD5bVNZ8ImA-KU60Yu-189" value="" style="html=1;jettySize=18;whiteSpace=wrap;fontSize=13;fontFamily=Helvetica;strokeColor=#333333;strokeOpacity=100;strokeWidth=0.8;rounded=1;arcSize=10;edgeStyle=orthogonalEdgeStyle;startArrow=none;endArrow=block;endFill=1;exitX=0.996;exitY=0.5;exitPerimeter=0;entryX=0.5;entryY=0;lucidId=Qb524KOCt6rm;entryDx=0;entryDy=0;" parent="WIyWlLk6GJQsqaUBKTNV-1" source="mtZD5bVNZ8ImA-KU60Yu-186" target="mtZD5bVNZ8ImA-KU60Yu-192" edge="1">
          <mxGeometry width="100" height="100" relative="1" as="geometry">
            <Array as="points" />
            <mxPoint x="1120" y="-532" as="targetPoint" />
          </mxGeometry>
        </mxCell>
        <mxCell id="mtZD5bVNZ8ImA-KU60Yu-190" value="No" style="text;html=1;resizable=0;labelBackgroundColor=default;align=center;verticalAlign=middle;fontStyle=1;fontColor=#3a414a;fontSize=16.7;" parent="mtZD5bVNZ8ImA-KU60Yu-189" vertex="1">
          <mxGeometry x="-0.3549401657535064" relative="1" as="geometry">
            <mxPoint as="offset" />
          </mxGeometry>
        </mxCell>
        <mxCell id="mtZD5bVNZ8ImA-KU60Yu-192" value="Thông báo sinh phách thất bại kèm lý do" style="html=1;overflow=block;blockSpacing=1;whiteSpace=wrap;fontSize=16.7;fontColor=#3a414a;spacing=9;strokeColor=#3a414a;strokeOpacity=100;rounded=1;absoluteArcSize=1;arcSize=9;strokeWidth=0.8;lucidId=Vd5282ZcRgbX;" parent="WIyWlLk6GJQsqaUBKTNV-1" vertex="1">
          <mxGeometry x="1030" y="-538" width="165" height="90" as="geometry" />
        </mxCell>
        <mxCell id="mtZD5bVNZ8ImA-KU60Yu-193" value="&lt;div&gt;Sinh phách bổ sung&lt;/div&gt;&lt;div&gt;từ giá trị tiếp theo&lt;/div&gt;" style="html=1;overflow=block;blockSpacing=1;whiteSpace=wrap;rhombus;fontSize=16.7;fontColor=#3a414a;spacingLeft=8.8;spacingRight=8.8;spacingTop=2.5;spacing=3.8;verticalAlign=middle;strokeColor=#1071e5;strokeOpacity=100;fillOpacity=100;rounded=1;absoluteArcSize=1;arcSize=7.5;fillColor=#ffffff;strokeWidth=2.3;lucidId=r~42AoOni9XZ;" parent="WIyWlLk6GJQsqaUBKTNV-1" vertex="1">
          <mxGeometry x="1247" y="-392" width="270" height="157" as="geometry" />
        </mxCell>
        <mxCell id="mtZD5bVNZ8ImA-KU60Yu-194" value="" style="html=1;jettySize=18;whiteSpace=wrap;fontSize=13;fontFamily=Helvetica;strokeColor=#333333;strokeOpacity=100;strokeWidth=0.8;rounded=1;arcSize=10;edgeStyle=orthogonalEdgeStyle;startArrow=none;endArrow=block;endFill=1;exitX=0.004;exitY=0.5;exitPerimeter=0;entryX=0.5;entryY=0;lucidId=vb52nJi0BUBK;entryDx=0;entryDy=0;" parent="WIyWlLk6GJQsqaUBKTNV-1" source="mtZD5bVNZ8ImA-KU60Yu-193" target="mtZD5bVNZ8ImA-KU60Yu-199" edge="1">
          <mxGeometry width="100" height="100" relative="1" as="geometry">
            <Array as="points" />
            <mxPoint x="1120" y="-201" as="targetPoint" />
          </mxGeometry>
        </mxCell>
        <mxCell id="mtZD5bVNZ8ImA-KU60Yu-195" value="Yes" style="text;html=1;resizable=0;labelBackgroundColor=default;align=center;verticalAlign=middle;fontStyle=1;fontColor=#3a414a;fontSize=16.7;" parent="mtZD5bVNZ8ImA-KU60Yu-194" vertex="1">
          <mxGeometry x="-0.3895358210088624" relative="1" as="geometry">
            <mxPoint as="offset" />
          </mxGeometry>
        </mxCell>
        <mxCell id="mtZD5bVNZ8ImA-KU60Yu-196" value="" style="html=1;jettySize=18;whiteSpace=wrap;fontSize=13;fontFamily=Helvetica;strokeColor=#333333;strokeOpacity=100;strokeWidth=0.8;rounded=1;arcSize=10;edgeStyle=orthogonalEdgeStyle;startArrow=none;endArrow=block;endFill=1;exitX=0.996;exitY=0.5;exitPerimeter=0;entryX=0.5;entryY=0;lucidId=Qb524KOCt6rm;entryDx=0;entryDy=0;" parent="WIyWlLk6GJQsqaUBKTNV-1" source="mtZD5bVNZ8ImA-KU60Yu-193" target="mtZD5bVNZ8ImA-KU60Yu-198" edge="1">
          <mxGeometry width="100" height="100" relative="1" as="geometry">
            <Array as="points" />
            <mxPoint x="1690" y="-229" as="targetPoint" />
          </mxGeometry>
        </mxCell>
        <mxCell id="mtZD5bVNZ8ImA-KU60Yu-197" value="No" style="text;html=1;resizable=0;labelBackgroundColor=default;align=center;verticalAlign=middle;fontStyle=1;fontColor=#3a414a;fontSize=16.7;" parent="mtZD5bVNZ8ImA-KU60Yu-196" vertex="1">
          <mxGeometry x="-0.3549401657535064" relative="1" as="geometry">
            <mxPoint as="offset" />
          </mxGeometry>
        </mxCell>
        <mxCell id="mtZD5bVNZ8ImA-KU60Yu-198" value="Thông báo sinh phách thất bại kèm lý do" style="html=1;overflow=block;blockSpacing=1;whiteSpace=wrap;fontSize=16.7;fontColor=#3a414a;spacing=9;strokeColor=#3a414a;strokeOpacity=100;rounded=1;absoluteArcSize=1;arcSize=9;strokeWidth=0.8;lucidId=Vd5282ZcRgbX;" parent="WIyWlLk6GJQsqaUBKTNV-1" vertex="1">
          <mxGeometry x="1600" y="-235" width="165" height="90" as="geometry" />
        </mxCell>
        <mxCell id="mtZD5bVNZ8ImA-KU60Yu-199" value="Thông báo sinh phách thành công" style="html=1;overflow=block;blockSpacing=1;whiteSpace=wrap;fontSize=16.7;fontColor=#3a414a;spacing=9;strokeColor=#3a414a;strokeOpacity=100;rounded=1;absoluteArcSize=1;arcSize=9;strokeWidth=0.8;lucidId=Vd5282ZcRgbX;" parent="WIyWlLk6GJQsqaUBKTNV-1" vertex="1">
          <mxGeometry x="1040" y="-237" width="165" height="90" as="geometry" />
        </mxCell>
        <mxCell id="mtZD5bVNZ8ImA-KU60Yu-201" value="Nhập danh sách cấm thi và vắng thi" style="html=1;overflow=block;blockSpacing=1;whiteSpace=wrap;fontSize=16.7;fontFamily=Helvetica;fontColor=#3a414a;spacing=3.8;strokeColor=#3a414a;strokeOpacity=100;fillOpacity=100;rounded=1;absoluteArcSize=1;arcSize=7.5;fillColor=#cfe4ff;strokeWidth=0.8;lucidId=l442yFQ2.ugf;" parent="WIyWlLk6GJQsqaUBKTNV-1" vertex="1">
          <mxGeometry x="1998" y="-1377" width="191" height="98" as="geometry" />
        </mxCell>
        <mxCell id="mtZD5bVNZ8ImA-KU60Yu-202" value="" style="html=1;jettySize=18;whiteSpace=wrap;fontSize=13;fontFamily=Helvetica;strokeColor=#333333;strokeOpacity=100;strokeWidth=0.8;rounded=1;arcSize=10;edgeStyle=orthogonalEdgeStyle;startArrow=none;endArrow=block;endFill=1;exitX=0.5;exitY=1.004;exitPerimeter=0;entryX=0.501;entryY=0.001;entryPerimeter=0;lucidId=l442.mK3H9wb;" parent="WIyWlLk6GJQsqaUBKTNV-1" source="mtZD5bVNZ8ImA-KU60Yu-201" target="mtZD5bVNZ8ImA-KU60Yu-205" edge="1">
          <mxGeometry width="100" height="100" relative="1" as="geometry">
            <Array as="points" />
          </mxGeometry>
        </mxCell>
        <mxCell id="mtZD5bVNZ8ImA-KU60Yu-203" value="" style="html=1;jettySize=18;whiteSpace=wrap;fontSize=13;fontFamily=Helvetica;strokeColor=#333333;strokeOpacity=100;strokeWidth=0.8;rounded=1;arcSize=10;edgeStyle=orthogonalEdgeStyle;startArrow=none;endArrow=block;endFill=1;exitX=0.996;exitY=0.5;exitPerimeter=0;entryX=0.5;entryY=-0.001;entryPerimeter=0;lucidId=l442F36g_A7B;" parent="WIyWlLk6GJQsqaUBKTNV-1" source="mtZD5bVNZ8ImA-KU60Yu-205" target="mtZD5bVNZ8ImA-KU60Yu-215" edge="1">
          <mxGeometry width="100" height="100" relative="1" as="geometry">
            <Array as="points" />
          </mxGeometry>
        </mxCell>
        <mxCell id="mtZD5bVNZ8ImA-KU60Yu-204" value="No" style="text;html=1;resizable=0;labelBackgroundColor=default;align=center;verticalAlign=middle;fontStyle=1;fontColor=#3a414a;fontSize=16.7;" parent="mtZD5bVNZ8ImA-KU60Yu-203" vertex="1">
          <mxGeometry x="-0.12300231451809707" relative="1" as="geometry" />
        </mxCell>
        <mxCell id="mtZD5bVNZ8ImA-KU60Yu-205" value="Phòng thi chưa nhập danh sách cấm thi?" style="html=1;overflow=block;blockSpacing=1;whiteSpace=wrap;rhombus;fontSize=16.7;fontColor=#3a414a;spacingLeft=8.8;spacingRight=8.8;spacingTop=2.5;spacing=3.8;verticalAlign=middle;strokeColor=#1071e5;strokeOpacity=100;fillOpacity=100;rounded=1;absoluteArcSize=1;arcSize=7.5;fillColor=#ffffff;strokeWidth=2.3;lucidId=l442vU19-5CW;" parent="WIyWlLk6GJQsqaUBKTNV-1" vertex="1">
          <mxGeometry x="1998" y="-1197" width="190" height="138" as="geometry" />
        </mxCell>
        <mxCell id="mtZD5bVNZ8ImA-KU60Yu-206" value="" style="html=1;jettySize=18;whiteSpace=wrap;fontSize=16.7;fontColor=#3a414a;fontStyle=1;strokeColor=#333333;strokeOpacity=100;strokeWidth=0.8;rounded=1;arcSize=10;edgeStyle=orthogonalEdgeStyle;startArrow=none;endArrow=block;endFill=1;exitX=0.004;exitY=0.5;exitPerimeter=0;entryX=0.5;entryY=-0.004;entryPerimeter=0;lucidId=l442xb9R.qYM;" parent="WIyWlLk6GJQsqaUBKTNV-1" source="mtZD5bVNZ8ImA-KU60Yu-205" target="mtZD5bVNZ8ImA-KU60Yu-210" edge="1">
          <mxGeometry width="100" height="100" relative="1" as="geometry">
            <Array as="points">
              <mxPoint x="1743" y="-1128" />
            </Array>
          </mxGeometry>
        </mxCell>
        <mxCell id="mtZD5bVNZ8ImA-KU60Yu-207" value="Yes" style="text;html=1;resizable=0;labelBackgroundColor=default;align=center;verticalAlign=middle;fontStyle=1;fontColor=#3a414a;fontSize=16.7;" parent="mtZD5bVNZ8ImA-KU60Yu-206" vertex="1">
          <mxGeometry x="-0.2522164369833607" relative="1" as="geometry" />
        </mxCell>
        <mxCell id="mtZD5bVNZ8ImA-KU60Yu-208" value="Start" style="html=1;overflow=block;blockSpacing=1;whiteSpace=wrap;fontSize=16.7;fontColor=#3a414a;spacing=3.8;strokeColor=#3a414a;strokeOpacity=100;rounded=1;absoluteArcSize=1;arcSize=9;strokeWidth=0.8;lucidId=l442NdSLC.Tj;" parent="WIyWlLk6GJQsqaUBKTNV-1" vertex="1">
          <mxGeometry x="2033" y="-1542" width="120" height="60" as="geometry" />
        </mxCell>
        <mxCell id="mtZD5bVNZ8ImA-KU60Yu-209" value="" style="html=1;jettySize=18;whiteSpace=wrap;fontSize=13;strokeColor=#3a414a;strokeOpacity=100;strokeWidth=0.8;rounded=1;arcSize=12;edgeStyle=orthogonalEdgeStyle;startArrow=none;endArrow=block;endFill=1;exitX=0.5;exitY=1.006;exitPerimeter=0;entryX=0.5;entryY=-0.004;entryPerimeter=0;lucidId=l442UZYZ3TC3;" parent="WIyWlLk6GJQsqaUBKTNV-1" source="mtZD5bVNZ8ImA-KU60Yu-208" target="mtZD5bVNZ8ImA-KU60Yu-201" edge="1">
          <mxGeometry width="100" height="100" relative="1" as="geometry">
            <Array as="points" />
          </mxGeometry>
        </mxCell>
        <mxCell id="mtZD5bVNZ8ImA-KU60Yu-210" value="Nhập danh sách cấm thi theo phòng thi" style="html=1;overflow=block;blockSpacing=1;whiteSpace=wrap;fontSize=16.7;fontColor=#3a414a;spacing=9;strokeColor=#3a414a;strokeOpacity=100;rounded=1;absoluteArcSize=1;arcSize=9;strokeWidth=0.8;lucidId=s-42EG7QDbs1;" parent="WIyWlLk6GJQsqaUBKTNV-1" vertex="1">
          <mxGeometry x="1660" y="-1017" width="165" height="90" as="geometry" />
        </mxCell>
        <mxCell id="mtZD5bVNZ8ImA-KU60Yu-211" value="Hiển thị số lượng sinh viên vắng thi theo phòng thi" style="html=1;overflow=block;blockSpacing=1;whiteSpace=wrap;fontSize=16.7;fontColor=#3a414a;spacing=9;strokeColor=#3a414a;strokeOpacity=100;rounded=1;absoluteArcSize=1;arcSize=9;strokeWidth=0.8;lucidId=x_42sJdRdm1W;" parent="WIyWlLk6GJQsqaUBKTNV-1" vertex="1">
          <mxGeometry x="1660" y="-852" width="165" height="90" as="geometry" />
        </mxCell>
        <mxCell id="mtZD5bVNZ8ImA-KU60Yu-212" value="" style="html=1;jettySize=18;whiteSpace=wrap;fontSize=13;strokeColor=#3a414a;strokeOpacity=100;strokeWidth=0.8;rounded=1;arcSize=12;edgeStyle=orthogonalEdgeStyle;startArrow=none;endArrow=block;endFill=1;exitX=0.5;exitY=1.004;exitPerimeter=0;entryX=0.5;entryY=-0.004;entryPerimeter=0;lucidId=D_42~an__h0V;" parent="WIyWlLk6GJQsqaUBKTNV-1" source="mtZD5bVNZ8ImA-KU60Yu-210" target="mtZD5bVNZ8ImA-KU60Yu-211" edge="1">
          <mxGeometry width="100" height="100" relative="1" as="geometry">
            <Array as="points" />
          </mxGeometry>
        </mxCell>
        <mxCell id="mtZD5bVNZ8ImA-KU60Yu-213" value="Thông báo chức năng bị khoá cần liên hệ với quản trị viên" style="html=1;overflow=block;blockSpacing=1;whiteSpace=wrap;fontSize=16.7;fontColor=#3a414a;spacing=9;strokeColor=#3a414a;strokeOpacity=100;rounded=1;absoluteArcSize=1;arcSize=9;strokeWidth=0.8;lucidId=o.428B-HGDA-;" parent="WIyWlLk6GJQsqaUBKTNV-1" vertex="1">
          <mxGeometry x="2590" y="-880" width="225" height="90" as="geometry" />
        </mxCell>
        <mxCell id="mtZD5bVNZ8ImA-KU60Yu-214" value="Nhập danh sách vắng thi theo phòng thi" style="html=1;overflow=block;blockSpacing=1;whiteSpace=wrap;fontSize=16.7;fontColor=#3a414a;spacing=9;strokeColor=#3a414a;strokeOpacity=100;rounded=1;absoluteArcSize=1;arcSize=9;strokeWidth=0.8;lucidId=o.42J9bFnOd1;" parent="WIyWlLk6GJQsqaUBKTNV-1" vertex="1">
          <mxGeometry x="2050" y="-852" width="165" height="90" as="geometry" />
        </mxCell>
        <mxCell id="mtZD5bVNZ8ImA-KU60Yu-215" value="&lt;div&gt;Quản trị viên mở lại chức&lt;/div&gt;&lt;div&gt;năng nhập danh sách&lt;/div&gt;&lt;div&gt;sinh viên vắng thi&lt;/div&gt;" style="html=1;overflow=block;blockSpacing=1;whiteSpace=wrap;rhombus;fontSize=16.7;fontColor=#3a414a;spacingLeft=8.8;spacingRight=8.8;spacingTop=2.5;spacing=3.8;verticalAlign=middle;strokeColor=#1071e5;strokeOpacity=100;fillOpacity=100;rounded=1;absoluteArcSize=1;arcSize=7.5;fillColor=#ffffff;strokeWidth=2.3;lucidId=r~42AoOni9XZ;" parent="WIyWlLk6GJQsqaUBKTNV-1" vertex="1">
          <mxGeometry x="2260" y="-1043" width="270" height="157" as="geometry" />
        </mxCell>
        <mxCell id="mtZD5bVNZ8ImA-KU60Yu-216" value="" style="html=1;jettySize=18;whiteSpace=wrap;fontSize=13;fontFamily=Helvetica;strokeColor=#333333;strokeOpacity=100;strokeWidth=0.8;rounded=1;arcSize=10;edgeStyle=orthogonalEdgeStyle;startArrow=none;endArrow=block;endFill=1;exitX=0.004;exitY=0.5;exitPerimeter=0;entryX=0.5;entryY=-0.004;entryPerimeter=0;lucidId=vb52nJi0BUBK;" parent="WIyWlLk6GJQsqaUBKTNV-1" source="mtZD5bVNZ8ImA-KU60Yu-215" target="mtZD5bVNZ8ImA-KU60Yu-214" edge="1">
          <mxGeometry width="100" height="100" relative="1" as="geometry">
            <Array as="points" />
          </mxGeometry>
        </mxCell>
        <mxCell id="mtZD5bVNZ8ImA-KU60Yu-217" value="Yes" style="text;html=1;resizable=0;labelBackgroundColor=default;align=center;verticalAlign=middle;fontStyle=1;fontColor=#3a414a;fontSize=16.7;" parent="mtZD5bVNZ8ImA-KU60Yu-216" vertex="1">
          <mxGeometry x="-0.3895358210088624" relative="1" as="geometry">
            <mxPoint as="offset" />
          </mxGeometry>
        </mxCell>
        <mxCell id="mtZD5bVNZ8ImA-KU60Yu-218" value="" style="html=1;jettySize=18;whiteSpace=wrap;fontSize=13;fontFamily=Helvetica;strokeColor=#333333;strokeOpacity=100;strokeWidth=0.8;rounded=1;arcSize=10;edgeStyle=orthogonalEdgeStyle;startArrow=none;endArrow=block;endFill=1;exitX=0.996;exitY=0.5;exitPerimeter=0;entryX=0.5;entryY=-0.004;entryPerimeter=0;lucidId=Qb524KOCt6rm;" parent="WIyWlLk6GJQsqaUBKTNV-1" source="mtZD5bVNZ8ImA-KU60Yu-215" target="mtZD5bVNZ8ImA-KU60Yu-213" edge="1">
          <mxGeometry width="100" height="100" relative="1" as="geometry">
            <Array as="points" />
          </mxGeometry>
        </mxCell>
        <mxCell id="mtZD5bVNZ8ImA-KU60Yu-219" value="No" style="text;html=1;resizable=0;labelBackgroundColor=default;align=center;verticalAlign=middle;fontStyle=1;fontColor=#3a414a;fontSize=16.7;" parent="mtZD5bVNZ8ImA-KU60Yu-218" vertex="1">
          <mxGeometry x="-0.3549401657535064" relative="1" as="geometry">
            <mxPoint as="offset" />
          </mxGeometry>
        </mxCell>
        <mxCell id="mtZD5bVNZ8ImA-KU60Yu-220" value="Hiển thị số lượng sinh viên vắng thi theo phòng thi" style="html=1;overflow=block;blockSpacing=1;whiteSpace=wrap;fontSize=16.7;fontColor=#3a414a;spacing=9;strokeColor=#3a414a;strokeOpacity=100;rounded=1;absoluteArcSize=1;arcSize=9;strokeWidth=0.8;lucidId=x_42sJdRdm1W;" parent="WIyWlLk6GJQsqaUBKTNV-1" vertex="1">
          <mxGeometry x="2050" y="-687" width="165" height="90" as="geometry" />
        </mxCell>
        <mxCell id="mtZD5bVNZ8ImA-KU60Yu-221" value="" style="html=1;jettySize=18;whiteSpace=wrap;fontSize=13;strokeColor=#3a414a;strokeOpacity=100;strokeWidth=0.8;rounded=1;arcSize=12;edgeStyle=orthogonalEdgeStyle;startArrow=none;endArrow=block;endFill=1;entryX=0.5;entryY=0;lucidId=D_42~an__h0V;exitX=0.5;exitY=1;exitDx=0;exitDy=0;entryDx=0;entryDy=0;" parent="WIyWlLk6GJQsqaUBKTNV-1" source="mtZD5bVNZ8ImA-KU60Yu-214" target="mtZD5bVNZ8ImA-KU60Yu-220" edge="1">
          <mxGeometry width="100" height="100" relative="1" as="geometry">
            <Array as="points">
              <mxPoint x="2133" y="-720" />
              <mxPoint x="2133" y="-720" />
            </Array>
            <mxPoint x="2250" y="-840" as="sourcePoint" />
            <mxPoint x="2250" y="-688.3600000000001" as="targetPoint" />
          </mxGeometry>
        </mxCell>
        <mxCell id="mtZD5bVNZ8ImA-KU60Yu-224" value="Ghép điểm" style="html=1;overflow=block;blockSpacing=1;whiteSpace=wrap;fontSize=16.7;fontFamily=Helvetica;fontColor=#3a414a;spacing=3.8;strokeColor=#3a414a;strokeOpacity=100;fillOpacity=100;rounded=1;absoluteArcSize=1;arcSize=7.5;fillColor=#cfe4ff;strokeWidth=0.8;lucidId=etI2NNhPbbnq;" parent="WIyWlLk6GJQsqaUBKTNV-1" vertex="1">
          <mxGeometry x="-930" y="260" width="191" height="98" as="geometry" />
        </mxCell>
        <mxCell id="mtZD5bVNZ8ImA-KU60Yu-225" value="" style="html=1;jettySize=18;whiteSpace=wrap;fontSize=13;fontFamily=Helvetica;strokeColor=#333333;strokeOpacity=100;strokeWidth=0.8;rounded=1;arcSize=10;edgeStyle=orthogonalEdgeStyle;startArrow=none;endArrow=block;endFill=1;exitX=0.5;exitY=1.004;exitPerimeter=0;lucidId=etI2RXQ-GxS4;entryX=0.5;entryY=0;entryDx=0;entryDy=0;" parent="WIyWlLk6GJQsqaUBKTNV-1" source="mtZD5bVNZ8ImA-KU60Yu-224" target="mtZD5bVNZ8ImA-KU60Yu-248" edge="1">
          <mxGeometry width="100" height="100" relative="1" as="geometry">
            <Array as="points" />
            <mxPoint x="-550" y="60" as="targetPoint" />
          </mxGeometry>
        </mxCell>
        <mxCell id="mtZD5bVNZ8ImA-KU60Yu-226" value="" style="html=1;jettySize=18;whiteSpace=wrap;fontSize=13;fontFamily=Helvetica;strokeColor=#333333;strokeOpacity=100;strokeWidth=0.8;rounded=1;arcSize=10;edgeStyle=orthogonalEdgeStyle;startArrow=none;endArrow=block;endFill=1;exitX=0.996;exitY=0.5;exitPerimeter=0;lucidId=etI2iA-WQSgF;" parent="WIyWlLk6GJQsqaUBKTNV-1" source="mtZD5bVNZ8ImA-KU60Yu-229" edge="1">
          <mxGeometry width="100" height="100" relative="1" as="geometry">
            <Array as="points">
              <mxPoint x="-620" y="89" />
              <mxPoint x="-620" y="-80" />
              <mxPoint x="-1190" y="-80" />
            </Array>
            <mxPoint x="-1190" y="90" as="targetPoint" />
          </mxGeometry>
        </mxCell>
        <mxCell id="mtZD5bVNZ8ImA-KU60Yu-227" value="No" style="text;html=1;resizable=0;labelBackgroundColor=default;align=center;verticalAlign=middle;fontStyle=1;fontColor=#3a414a;fontSize=16.7;" parent="mtZD5bVNZ8ImA-KU60Yu-226" vertex="1">
          <mxGeometry x="-0.12300231451809707" relative="1" as="geometry" />
        </mxCell>
        <mxCell id="mtZD5bVNZ8ImA-KU60Yu-228" value="Chọn thông tin môn muốn nhập điểm" style="html=1;overflow=block;blockSpacing=1;whiteSpace=wrap;fontSize=16.7;fontFamily=Helvetica;fontColor=#3a414a;spacing=3.8;strokeColor=#3a414a;strokeOpacity=100;fillOpacity=100;rounded=1;absoluteArcSize=1;arcSize=7.5;fillColor=#cfe4ff;strokeWidth=0.8;lucidId=etI238ScHZtL;" parent="WIyWlLk6GJQsqaUBKTNV-1" vertex="1">
          <mxGeometry x="-1190.5" y="839" width="191" height="98" as="geometry" />
        </mxCell>
        <mxCell id="mtZD5bVNZ8ImA-KU60Yu-229" value="&lt;div&gt;Yêu cầu đăng nhập với&lt;/div&gt;&lt;div&gt;email HUMG của Giảng viên&lt;/div&gt;" style="html=1;overflow=block;blockSpacing=1;whiteSpace=wrap;rhombus;fontSize=16.7;fontColor=#3a414a;spacingLeft=8.8;spacingRight=8.8;spacingTop=2.5;spacing=3.8;verticalAlign=middle;strokeColor=#1071e5;strokeOpacity=100;fillOpacity=100;rounded=1;absoluteArcSize=1;arcSize=7.5;fillColor=#ffffff;strokeWidth=2.3;lucidId=etI2R~uESKi-;" parent="WIyWlLk6GJQsqaUBKTNV-1" vertex="1">
          <mxGeometry x="-990" width="310" height="178" as="geometry" />
        </mxCell>
        <mxCell id="mtZD5bVNZ8ImA-KU60Yu-231" value="Tải xuống bản mẫu&amp;nbsp;" style="html=1;overflow=block;blockSpacing=1;whiteSpace=wrap;fontSize=16.7;fontFamily=Helvetica;fontColor=#3a414a;spacing=3.8;strokeColor=#3a414a;strokeOpacity=100;fillOpacity=100;rounded=1;absoluteArcSize=1;arcSize=7.5;fillColor=#cfe4ff;strokeWidth=0.8;lucidId=9FI2TjJxOzfs;" parent="WIyWlLk6GJQsqaUBKTNV-1" vertex="1">
          <mxGeometry x="-1530" y="709" width="191" height="98" as="geometry" />
        </mxCell>
        <mxCell id="mtZD5bVNZ8ImA-KU60Yu-244" value="Start" style="html=1;overflow=block;blockSpacing=1;whiteSpace=wrap;fontSize=16.7;fontColor=#3a414a;spacing=3.8;strokeColor=#3a414a;strokeOpacity=100;rounded=1;absoluteArcSize=1;arcSize=9;strokeWidth=0.8;lucidId=5F02H6.4qjMD;" parent="WIyWlLk6GJQsqaUBKTNV-1" vertex="1">
          <mxGeometry x="-1530" y="60" width="120" height="60" as="geometry" />
        </mxCell>
        <mxCell id="mtZD5bVNZ8ImA-KU60Yu-245" value="" style="html=1;jettySize=18;whiteSpace=wrap;fontSize=13;strokeColor=#3a414a;strokeOpacity=100;strokeWidth=0.8;rounded=1;arcSize=12;edgeStyle=orthogonalEdgeStyle;startArrow=none;endArrow=block;endFill=1;exitX=1;exitY=0.5;entryX=0;entryY=0.5;lucidId=gG02ivcvmwz-;entryDx=0;entryDy=0;exitDx=0;exitDy=0;" parent="WIyWlLk6GJQsqaUBKTNV-1" source="mtZD5bVNZ8ImA-KU60Yu-244" target="mtZD5bVNZ8ImA-KU60Yu-229" edge="1">
          <mxGeometry width="100" height="100" relative="1" as="geometry">
            <Array as="points" />
          </mxGeometry>
        </mxCell>
        <mxCell id="mtZD5bVNZ8ImA-KU60Yu-246" value="" style="html=1;jettySize=18;whiteSpace=wrap;fontSize=13;fontFamily=Helvetica;strokeColor=#333333;strokeOpacity=100;strokeWidth=0.8;rounded=1;arcSize=10;edgeStyle=orthogonalEdgeStyle;startArrow=none;endArrow=block;endFill=1;exitX=0.5;exitY=1;lucidId=etI2iA-WQSgF;exitDx=0;exitDy=0;entryX=0.5;entryY=0;entryDx=0;entryDy=0;" parent="WIyWlLk6GJQsqaUBKTNV-1" source="mtZD5bVNZ8ImA-KU60Yu-229" target="mtZD5bVNZ8ImA-KU60Yu-224" edge="1">
          <mxGeometry width="100" height="100" relative="1" as="geometry">
            <Array as="points">
              <mxPoint x="-835" y="229" />
              <mxPoint x="-834" y="260" />
            </Array>
            <mxPoint x="-1086" y="295" as="sourcePoint" />
            <mxPoint x="-1130" y="455" as="targetPoint" />
          </mxGeometry>
        </mxCell>
        <mxCell id="mtZD5bVNZ8ImA-KU60Yu-247" value="Yes" style="text;html=1;resizable=0;labelBackgroundColor=default;align=center;verticalAlign=middle;fontStyle=1;fontColor=#3a414a;fontSize=16.7;" parent="mtZD5bVNZ8ImA-KU60Yu-246" vertex="1">
          <mxGeometry x="-0.12300231451809707" relative="1" as="geometry" />
        </mxCell>
        <mxCell id="mtZD5bVNZ8ImA-KU60Yu-248" value="&lt;div&gt;Tải file mẫu để nhập điểm&lt;/div&gt;&lt;div&gt;vào hệ thống&lt;/div&gt;" style="html=1;overflow=block;blockSpacing=1;whiteSpace=wrap;rhombus;fontSize=16.7;fontColor=#3a414a;spacingLeft=8.8;spacingRight=8.8;spacingTop=2.5;spacing=3.8;verticalAlign=middle;strokeColor=#1071e5;strokeOpacity=100;fillOpacity=100;rounded=1;absoluteArcSize=1;arcSize=7.5;fillColor=#ffffff;strokeWidth=2.3;lucidId=etI2R~uESKi-;" parent="WIyWlLk6GJQsqaUBKTNV-1" vertex="1">
          <mxGeometry x="-1250" y="559" width="310" height="178" as="geometry" />
        </mxCell>
        <mxCell id="mtZD5bVNZ8ImA-KU60Yu-249" value="" style="html=1;jettySize=18;whiteSpace=wrap;fontSize=13;fontFamily=Helvetica;strokeColor=#333333;strokeOpacity=100;strokeWidth=0.8;rounded=1;arcSize=10;edgeStyle=orthogonalEdgeStyle;startArrow=none;endArrow=block;endFill=1;exitX=0;exitY=0.5;lucidId=etI2iA-WQSgF;exitDx=0;exitDy=0;entryX=0.5;entryY=0;entryDx=0;entryDy=0;" parent="WIyWlLk6GJQsqaUBKTNV-1" source="mtZD5bVNZ8ImA-KU60Yu-248" target="mtZD5bVNZ8ImA-KU60Yu-231" edge="1">
          <mxGeometry width="100" height="100" relative="1" as="geometry">
            <Array as="points">
              <mxPoint x="-1434" y="648" />
            </Array>
            <mxPoint x="-1285" y="632.5" as="sourcePoint" />
            <mxPoint x="-1480" y="663.5" as="targetPoint" />
          </mxGeometry>
        </mxCell>
        <mxCell id="mtZD5bVNZ8ImA-KU60Yu-250" value="Yes" style="text;html=1;resizable=0;labelBackgroundColor=default;align=center;verticalAlign=middle;fontStyle=1;fontColor=#3a414a;fontSize=16.7;" parent="mtZD5bVNZ8ImA-KU60Yu-249" vertex="1">
          <mxGeometry x="-0.12300231451809707" relative="1" as="geometry" />
        </mxCell>
        <mxCell id="mtZD5bVNZ8ImA-KU60Yu-251" value="" style="html=1;jettySize=18;whiteSpace=wrap;fontSize=13;fontFamily=Helvetica;strokeColor=#333333;strokeOpacity=100;strokeWidth=0.8;rounded=1;arcSize=10;edgeStyle=orthogonalEdgeStyle;startArrow=none;endArrow=block;endFill=1;exitX=1;exitY=0.5;entryX=1;entryY=0.5;lucidId=etI2iA-WQSgF;exitDx=0;exitDy=0;entryDx=0;entryDy=0;" parent="WIyWlLk6GJQsqaUBKTNV-1" source="mtZD5bVNZ8ImA-KU60Yu-248" target="mtZD5bVNZ8ImA-KU60Yu-228" edge="1">
          <mxGeometry width="100" height="100" relative="1" as="geometry">
            <Array as="points" />
            <mxPoint x="-941.6" y="649" as="sourcePoint" />
            <mxPoint x="-672.6" y="780" as="targetPoint" />
          </mxGeometry>
        </mxCell>
        <mxCell id="mtZD5bVNZ8ImA-KU60Yu-252" value="No" style="text;html=1;resizable=0;labelBackgroundColor=default;align=center;verticalAlign=middle;fontStyle=1;fontColor=#3a414a;fontSize=16.7;" parent="mtZD5bVNZ8ImA-KU60Yu-251" vertex="1">
          <mxGeometry x="-0.12300231451809707" relative="1" as="geometry" />
        </mxCell>
        <mxCell id="mtZD5bVNZ8ImA-KU60Yu-253" value="" style="html=1;jettySize=18;whiteSpace=wrap;fontSize=13;strokeColor=#3a414a;strokeOpacity=100;strokeWidth=0.8;rounded=1;arcSize=12;edgeStyle=orthogonalEdgeStyle;startArrow=none;endArrow=block;endFill=1;exitX=0.5;exitY=1;entryX=0;entryY=0.5;lucidId=zF026ahcJN2x;exitDx=0;exitDy=0;entryDx=0;entryDy=0;" parent="WIyWlLk6GJQsqaUBKTNV-1" source="mtZD5bVNZ8ImA-KU60Yu-231" target="mtZD5bVNZ8ImA-KU60Yu-228" edge="1">
          <mxGeometry width="100" height="100" relative="1" as="geometry">
            <Array as="points" />
            <mxPoint x="-1348" y="969" as="sourcePoint" />
            <mxPoint x="-1460" y="1081" as="targetPoint" />
          </mxGeometry>
        </mxCell>
        <mxCell id="mtZD5bVNZ8ImA-KU60Yu-257" value="" style="html=1;jettySize=18;whiteSpace=wrap;fontSize=13;strokeColor=#3a414a;strokeOpacity=100;strokeWidth=0.8;rounded=1;arcSize=12;edgeStyle=orthogonalEdgeStyle;startArrow=none;endArrow=block;endFill=1;exitX=0.5;exitY=1;lucidId=gG02ivcvmwz-;exitDx=0;exitDy=0;" parent="WIyWlLk6GJQsqaUBKTNV-1" source="mtZD5bVNZ8ImA-KU60Yu-228" target="mtZD5bVNZ8ImA-KU60Yu-258" edge="1">
          <mxGeometry width="100" height="100" relative="1" as="geometry">
            <Array as="points" />
            <mxPoint x="-1095.5" y="937" as="sourcePoint" />
            <mxPoint x="-1095" y="1041.6080000000002" as="targetPoint" />
          </mxGeometry>
        </mxCell>
        <mxCell id="mtZD5bVNZ8ImA-KU60Yu-258" value="&lt;div&gt;Nhập điểm từ file excel có chứa&lt;/div&gt;&lt;div&gt;thông tin phách thi và điểm số?&lt;/div&gt;" style="html=1;overflow=block;blockSpacing=1;whiteSpace=wrap;rhombus;fontSize=16.7;fontColor=#3a414a;spacingLeft=8.8;spacingRight=8.8;spacingTop=2.5;spacing=3.8;verticalAlign=middle;strokeColor=#1071e5;strokeOpacity=100;fillOpacity=100;rounded=1;absoluteArcSize=1;arcSize=7.5;fillColor=#ffffff;strokeWidth=2.3;lucidId=etI2R~uESKi-;" parent="WIyWlLk6GJQsqaUBKTNV-1" vertex="1">
          <mxGeometry x="-1199" y="1019" width="310" height="178" as="geometry" />
        </mxCell>
        <mxCell id="mtZD5bVNZ8ImA-KU60Yu-259" value="" style="html=1;jettySize=18;whiteSpace=wrap;fontSize=13;fontFamily=Helvetica;strokeColor=#333333;strokeOpacity=100;strokeWidth=0.8;rounded=1;arcSize=10;edgeStyle=orthogonalEdgeStyle;startArrow=none;endArrow=block;endFill=1;exitX=0;exitY=0.5;lucidId=etI2iA-WQSgF;exitDx=0;exitDy=0;entryX=0.5;entryY=0;entryDx=0;entryDy=0;" parent="WIyWlLk6GJQsqaUBKTNV-1" source="mtZD5bVNZ8ImA-KU60Yu-258" target="mtZD5bVNZ8ImA-KU60Yu-264" edge="1">
          <mxGeometry width="100" height="100" relative="1" as="geometry">
            <Array as="points">
              <mxPoint x="-1317" y="1108" />
            </Array>
            <mxPoint x="-1331" y="1102.5" as="sourcePoint" />
            <mxPoint x="-1480" y="1179" as="targetPoint" />
          </mxGeometry>
        </mxCell>
        <mxCell id="mtZD5bVNZ8ImA-KU60Yu-260" value="Yes" style="text;html=1;resizable=0;labelBackgroundColor=default;align=center;verticalAlign=middle;fontStyle=1;fontColor=#3a414a;fontSize=16.7;" parent="mtZD5bVNZ8ImA-KU60Yu-259" vertex="1">
          <mxGeometry x="-0.12300231451809707" relative="1" as="geometry" />
        </mxCell>
        <mxCell id="mtZD5bVNZ8ImA-KU60Yu-261" value="" style="html=1;jettySize=18;whiteSpace=wrap;fontSize=13;fontFamily=Helvetica;strokeColor=#333333;strokeOpacity=100;strokeWidth=0.8;rounded=1;arcSize=10;edgeStyle=orthogonalEdgeStyle;startArrow=none;endArrow=block;endFill=1;exitX=1;exitY=0.5;lucidId=etI2iA-WQSgF;exitDx=0;exitDy=0;entryX=0.5;entryY=0;entryDx=0;entryDy=0;" parent="WIyWlLk6GJQsqaUBKTNV-1" source="mtZD5bVNZ8ImA-KU60Yu-258" target="mtZD5bVNZ8ImA-KU60Yu-270" edge="1">
          <mxGeometry width="100" height="100" relative="1" as="geometry">
            <Array as="points">
              <mxPoint x="-767" y="1108" />
            </Array>
            <mxPoint x="-987.6" y="1119" as="sourcePoint" />
            <mxPoint x="-740" y="1059" as="targetPoint" />
          </mxGeometry>
        </mxCell>
        <mxCell id="mtZD5bVNZ8ImA-KU60Yu-262" value="No" style="text;html=1;resizable=0;labelBackgroundColor=default;align=center;verticalAlign=middle;fontStyle=1;fontColor=#3a414a;fontSize=16.7;" parent="mtZD5bVNZ8ImA-KU60Yu-261" vertex="1">
          <mxGeometry x="-0.12300231451809707" relative="1" as="geometry" />
        </mxCell>
        <mxCell id="mtZD5bVNZ8ImA-KU60Yu-263" value="Định dạng file không đúng" style="html=1;overflow=block;blockSpacing=1;whiteSpace=wrap;fontSize=16.7;fontColor=#3a414a;spacing=9;strokeColor=#3a414a;strokeOpacity=100;rounded=1;absoluteArcSize=1;arcSize=9;strokeWidth=0.8;lucidId=sWI2o0M55bDM;" parent="WIyWlLk6GJQsqaUBKTNV-1" vertex="1">
          <mxGeometry x="-1630" y="1384" width="165" height="90" as="geometry" />
        </mxCell>
        <mxCell id="mtZD5bVNZ8ImA-KU60Yu-264" value="Thông báo cho người dùng" style="html=1;overflow=block;blockSpacing=1;whiteSpace=wrap;fontSize=16.7;fontFamily=Helvetica;fontColor=#3a414a;spacing=3.8;strokeColor=#3a414a;strokeOpacity=100;fillOpacity=100;rounded=1;absoluteArcSize=1;arcSize=7.5;fillColor=#cfe4ff;strokeWidth=0.8;lucidId=9C02dhXhYO4_;" parent="WIyWlLk6GJQsqaUBKTNV-1" vertex="1">
          <mxGeometry x="-1435" y="1219" width="236" height="105" as="geometry" />
        </mxCell>
        <mxCell id="mtZD5bVNZ8ImA-KU60Yu-265" value="Dữ liệu phách thi không đúng" style="html=1;overflow=block;blockSpacing=1;whiteSpace=wrap;fontSize=16.7;fontColor=#3a414a;spacing=9;strokeColor=#3a414a;strokeOpacity=100;rounded=1;absoluteArcSize=1;arcSize=9;strokeWidth=0.8;lucidId=BE02jiFEc6BS;" parent="WIyWlLk6GJQsqaUBKTNV-1" vertex="1">
          <mxGeometry x="-1435" y="1384" width="165" height="90" as="geometry" />
        </mxCell>
        <mxCell id="mtZD5bVNZ8ImA-KU60Yu-266" value="Dữ liệu phách thi không đúng với môn thi" style="html=1;overflow=block;blockSpacing=1;whiteSpace=wrap;fontSize=16.7;fontColor=#3a414a;spacing=9;strokeColor=#3a414a;strokeOpacity=100;rounded=1;absoluteArcSize=1;arcSize=9;strokeWidth=0.8;lucidId=RE022BQMSdT5;" parent="WIyWlLk6GJQsqaUBKTNV-1" vertex="1">
          <mxGeometry x="-1240" y="1384" width="165" height="90" as="geometry" />
        </mxCell>
        <mxCell id="mtZD5bVNZ8ImA-KU60Yu-267" value="" style="html=1;jettySize=18;whiteSpace=wrap;fontSize=13;strokeColor=#3a414a;strokeOpacity=100;strokeWidth=0.8;rounded=1;arcSize=12;edgeStyle=orthogonalEdgeStyle;startArrow=none;endArrow=block;endFill=1;exitX=0.5;exitY=1.004;exitPerimeter=0;entryX=0.5;entryY=-0.004;entryPerimeter=0;lucidId=fF02~MAQwTRJ;" parent="WIyWlLk6GJQsqaUBKTNV-1" source="mtZD5bVNZ8ImA-KU60Yu-264" target="mtZD5bVNZ8ImA-KU60Yu-265" edge="1">
          <mxGeometry width="100" height="100" relative="1" as="geometry">
            <Array as="points" />
          </mxGeometry>
        </mxCell>
        <mxCell id="mtZD5bVNZ8ImA-KU60Yu-268" value="" style="html=1;jettySize=18;whiteSpace=wrap;fontSize=13;strokeColor=#3a414a;strokeOpacity=100;strokeWidth=0.8;rounded=1;arcSize=12;edgeStyle=orthogonalEdgeStyle;startArrow=none;endArrow=block;endFill=1;exitX=1.002;exitY=0.5;exitPerimeter=0;entryX=0.5;entryY=-0.004;entryPerimeter=0;lucidId=rF027XGLVJAu;" parent="WIyWlLk6GJQsqaUBKTNV-1" source="mtZD5bVNZ8ImA-KU60Yu-264" target="mtZD5bVNZ8ImA-KU60Yu-266" edge="1">
          <mxGeometry width="100" height="100" relative="1" as="geometry">
            <Array as="points" />
          </mxGeometry>
        </mxCell>
        <mxCell id="mtZD5bVNZ8ImA-KU60Yu-269" value="" style="html=1;jettySize=18;whiteSpace=wrap;fontSize=13;strokeColor=#3a414a;strokeOpacity=100;strokeWidth=0.8;rounded=1;arcSize=12;edgeStyle=orthogonalEdgeStyle;startArrow=none;endArrow=block;endFill=1;exitX=-0.002;exitY=0.5;exitPerimeter=0;entryX=0.5;entryY=-0.004;entryPerimeter=0;lucidId=zF026ahcJN2x;" parent="WIyWlLk6GJQsqaUBKTNV-1" source="mtZD5bVNZ8ImA-KU60Yu-264" target="mtZD5bVNZ8ImA-KU60Yu-263" edge="1">
          <mxGeometry width="100" height="100" relative="1" as="geometry">
            <Array as="points" />
          </mxGeometry>
        </mxCell>
        <mxCell id="mtZD5bVNZ8ImA-KU60Yu-270" value="Quét mã vạch và nhập điểm trực tiếp vào hệ thống (lưu trữ dữ liệu tạm thời)" style="html=1;overflow=block;blockSpacing=1;whiteSpace=wrap;fontSize=16.7;fontFamily=Helvetica;fontColor=#3a414a;spacing=3.8;strokeColor=#3A414A;strokeOpacity=100;fillOpacity=100;rounded=1;absoluteArcSize=1;arcSize=7.5;fillColor=#cfe4ff;strokeWidth=0.8;lucidId=9C02dhXhYO4_;" parent="WIyWlLk6GJQsqaUBKTNV-1" vertex="1">
          <mxGeometry x="-885.5" y="1219" width="236" height="105" as="geometry" />
        </mxCell>
        <mxCell id="mtZD5bVNZ8ImA-KU60Yu-271" value="" style="html=1;jettySize=18;whiteSpace=wrap;fontSize=13;strokeColor=#3a414a;strokeOpacity=100;strokeWidth=0.8;rounded=1;arcSize=12;edgeStyle=orthogonalEdgeStyle;startArrow=none;endArrow=block;endFill=1;exitX=0.5;exitY=1;lucidId=gG02ivcvmwz-;exitDx=0;exitDy=0;" parent="WIyWlLk6GJQsqaUBKTNV-1" target="mtZD5bVNZ8ImA-KU60Yu-272" edge="1">
          <mxGeometry width="100" height="100" relative="1" as="geometry">
            <Array as="points" />
            <mxPoint x="-765" y="1324" as="sourcePoint" />
            <mxPoint x="-765" y="1428.6080000000002" as="targetPoint" />
          </mxGeometry>
        </mxCell>
        <mxCell id="vcJv0A9I3Kmm-Lqw74Rq-14" style="edgeStyle=orthogonalEdgeStyle;rounded=0;orthogonalLoop=1;jettySize=auto;html=1;exitX=1;exitY=0.5;exitDx=0;exitDy=0;" parent="WIyWlLk6GJQsqaUBKTNV-1" source="mtZD5bVNZ8ImA-KU60Yu-272" target="vcJv0A9I3Kmm-Lqw74Rq-5" edge="1">
          <mxGeometry relative="1" as="geometry" />
        </mxCell>
        <mxCell id="vcJv0A9I3Kmm-Lqw74Rq-17" value="&lt;b&gt;&lt;font style=&quot;font-size: 18px;&quot;&gt;No&lt;/font&gt;&lt;/b&gt;" style="edgeLabel;html=1;align=center;verticalAlign=middle;resizable=0;points=[];" parent="vcJv0A9I3Kmm-Lqw74Rq-14" vertex="1" connectable="0">
          <mxGeometry x="-0.4852" y="-1" relative="1" as="geometry">
            <mxPoint as="offset" />
          </mxGeometry>
        </mxCell>
        <mxCell id="mtZD5bVNZ8ImA-KU60Yu-272" value="&lt;div&gt;Nhập điểm từ file excel có chứa&lt;/div&gt;&lt;div&gt;thông tin phách thi và điểm số?&lt;/div&gt;" style="html=1;overflow=block;blockSpacing=1;whiteSpace=wrap;rhombus;fontSize=16.7;fontColor=#3a414a;spacingLeft=8.8;spacingRight=8.8;spacingTop=2.5;spacing=3.8;verticalAlign=middle;strokeColor=#1071e5;strokeOpacity=100;fillOpacity=100;rounded=1;absoluteArcSize=1;arcSize=7.5;fillColor=#ffffff;strokeWidth=2.3;lucidId=etI2R~uESKi-;" parent="WIyWlLk6GJQsqaUBKTNV-1" vertex="1">
          <mxGeometry x="-889" y="1406" width="310" height="178" as="geometry" />
        </mxCell>
        <mxCell id="vcJv0A9I3Kmm-Lqw74Rq-3" value="&lt;span style=&quot;font-size: 18px;&quot;&gt;Nhập điểm vào hệ thống với file excel đã tải&lt;/span&gt;" style="rounded=1;whiteSpace=wrap;html=1;strokeColor=#3A414A;fillColor=#CFE4FF;" parent="WIyWlLk6GJQsqaUBKTNV-1" vertex="1">
          <mxGeometry x="-1050" y="1619" width="206" height="110" as="geometry" />
        </mxCell>
        <mxCell id="vcJv0A9I3Kmm-Lqw74Rq-5" value="&lt;font style=&quot;font-size: 18px;&quot;&gt;Thông báo file không hợp lệ, Vui lòng tải file đúng định dạng&lt;/font&gt;" style="rounded=1;whiteSpace=wrap;html=1;strokeColor=#3A414A;fillColor=#CFE4FF;" parent="WIyWlLk6GJQsqaUBKTNV-1" vertex="1">
          <mxGeometry x="-554" y="1629" width="201" height="90" as="geometry" />
        </mxCell>
        <mxCell id="vcJv0A9I3Kmm-Lqw74Rq-12" style="edgeStyle=orthogonalEdgeStyle;rounded=0;orthogonalLoop=1;jettySize=auto;html=1;exitX=0;exitY=0.5;exitDx=0;exitDy=0;entryX=0.319;entryY=-0.011;entryDx=0;entryDy=0;entryPerimeter=0;" parent="WIyWlLk6GJQsqaUBKTNV-1" source="mtZD5bVNZ8ImA-KU60Yu-272" target="vcJv0A9I3Kmm-Lqw74Rq-3" edge="1">
          <mxGeometry relative="1" as="geometry" />
        </mxCell>
        <mxCell id="vcJv0A9I3Kmm-Lqw74Rq-16" value="&lt;font style=&quot;font-size: 18px;&quot;&gt;&lt;b&gt;Yes&lt;/b&gt;&lt;/font&gt;" style="edgeLabel;html=1;align=center;verticalAlign=middle;resizable=0;points=[];" parent="vcJv0A9I3Kmm-Lqw74Rq-12" vertex="1" connectable="0">
          <mxGeometry x="-0.6073" relative="1" as="geometry">
            <mxPoint as="offset" />
          </mxGeometry>
        </mxCell>
      </root>
    </mxGraphModel>
  </diagram>
</mxfile>
